<svg width="226" height="257" viewBox="0 0 226 257" fill="none" xmlns="http://www.w3.org/2000/svg">
<rect x="24.8145" y="111.799" width="207.598" height="93.3262" rx="23.5" transform="rotate(15 24.8145 111.799)" fill="url(#paint0_linear_0_1)"/>
<rect x="24.8145" y="111.799" width="207.598" height="93.3262" rx="23.5" transform="rotate(15 24.8145 111.799)" stroke="url(#paint1_linear_0_1)"/>
<path d="M73.1743 157.806C70.8544 155.748 70.0809 153.277 70.8539 150.393C71.2266 149.002 71.916 147.82 72.922 146.847C73.9281 145.874 75.2163 145.239 76.7867 144.942C78.364 144.62 80.1572 144.727 82.1663 145.266C84.1496 145.797 85.7436 146.597 86.9482 147.665C88.1854 148.714 88.9965 149.912 89.3814 151.257C89.7663 152.603 89.7724 153.971 89.3997 155.362C89.0132 156.804 88.298 157.979 87.2543 158.887C86.2432 159.775 85.0529 160.354 83.6836 160.622C85.0068 161.556 85.9278 162.755 86.4466 164.219C86.9722 165.658 87.0141 167.201 86.5724 168.85C86.1238 170.524 85.3019 171.891 84.1068 172.951C82.9117 174.011 81.4611 174.686 79.7551 174.974C78.049 175.262 76.23 175.147 74.2982 174.63C72.3663 174.112 70.7337 173.302 69.4003 172.199C68.0927 171.104 67.1865 169.798 66.6815 168.282C66.1766 166.767 66.1485 165.172 66.5971 163.497C67.0457 161.823 67.8572 160.494 69.0316 159.512C70.206 158.529 71.5869 157.96 73.1743 157.806ZM85.0433 154.774C85.4298 153.332 85.2758 152.104 84.5813 151.089C83.8869 150.075 82.754 149.357 81.1828 148.936C79.6373 148.522 78.3103 148.581 77.2017 149.112C76.0931 149.643 75.3421 150.643 74.9487 152.111C74.6036 153.399 74.7843 154.579 75.4907 155.652C76.2298 156.706 77.3334 157.429 78.8016 157.823C80.2698 158.216 81.5909 158.128 82.7648 157.56C83.9387 156.991 84.6982 156.062 85.0433 154.774ZM77.9113 161.146C76.2113 160.69 74.7065 160.742 73.3969 161.302C72.1199 161.844 71.2709 162.9 70.8499 164.471C70.4565 165.939 70.6507 167.275 71.4326 168.479C72.2214 169.656 73.5044 170.483 75.2817 170.959C77.0332 171.429 78.5355 171.334 79.7886 170.676C81.0673 170.025 81.9 168.978 82.2865 167.536C82.7006 165.99 82.4935 164.651 81.6652 163.518C80.8626 162.392 79.6113 161.601 77.9113 161.146ZM92.9881 163.405C94.1821 158.949 95.8609 155.671 98.0243 153.573C100.22 151.456 103.16 150.891 106.844 151.878C110.527 152.865 112.777 154.821 113.595 157.745C114.445 160.651 114.273 164.332 113.079 168.788C111.872 173.296 110.166 176.621 107.963 178.764C105.793 180.888 102.866 181.456 99.1825 180.469C95.4991 179.482 93.2358 177.523 92.3924 174.592C91.5817 171.641 91.7803 167.912 92.9881 163.405ZM108.752 167.629C109.311 165.542 109.642 163.74 109.745 162.221C109.874 160.71 109.647 159.393 109.065 158.271C108.489 157.123 107.39 156.331 105.767 155.896C104.144 155.461 102.796 155.597 101.724 156.304C100.658 156.984 99.79 158.008 99.1202 159.374C98.4761 160.748 97.8745 162.478 97.3155 164.564C96.7357 166.728 96.3779 168.578 96.2421 170.116C96.1063 171.653 96.3297 172.983 96.9124 174.105C97.5209 175.234 98.6365 176.016 100.259 176.451C101.882 176.886 103.226 176.763 104.292 176.082C105.384 175.409 106.255 174.372 106.906 172.973C107.557 171.574 108.172 169.792 108.752 167.629ZM138.436 178.109L130.631 176.017L128.488 184.015L124.393 182.918L126.536 174.92L118.731 172.829L119.725 169.119L127.53 171.211L129.673 163.213L133.768 164.31L131.625 172.308L139.43 174.399L138.436 178.109Z" fill="#7266FF"/>
<path d="M64.3954 196.295L59.1098 194.879L57.4141 197.313L55.745 196.866L63.3549 185.991L65.1805 186.48L66.3161 199.698L64.6469 199.251L64.3954 196.295ZM64.2881 194.887L63.7372 188.18L59.9066 193.713L64.2881 194.887ZM71.8902 192.862C72.3492 192.401 72.9339 192.073 73.6446 191.878C74.3699 191.675 75.144 191.684 75.967 191.904C76.8131 192.131 77.5238 192.539 78.099 193.128C78.6857 193.72 79.0768 194.44 79.2721 195.287C79.4705 196.123 79.4393 197.028 79.1784 198.001C78.9206 198.963 78.4937 199.768 77.8978 200.416C77.3018 201.064 76.6002 201.503 75.7929 201.734C74.9972 201.968 74.1763 201.972 73.3301 201.745C72.5187 201.528 71.8482 201.156 71.3186 200.629C70.8037 200.093 70.4569 199.509 70.2783 198.878L68.5965 205.154L67.0143 204.73L70.7786 190.682L72.3608 191.106L71.8902 192.862ZM77.5614 197.568C77.754 196.849 77.7768 196.185 77.6299 195.574C77.483 194.963 77.1976 194.452 76.7737 194.04C76.3614 193.631 75.8597 193.348 75.2686 193.189C74.689 193.034 74.1112 193.035 73.5352 193.191C72.9738 193.339 72.4694 193.644 72.0221 194.108C71.5894 194.564 71.2784 195.145 71.0889 195.852C70.8964 196.571 70.872 197.242 71.0158 197.864C71.1743 198.478 71.4581 198.995 71.8673 199.415C72.2912 199.827 72.7929 200.11 73.3725 200.266C73.9636 200.424 74.5399 200.43 75.1012 200.282C75.6773 200.126 76.1817 199.82 76.6143 199.364C77.0501 198.897 77.3658 198.298 77.5614 197.568ZM83.6398 196.01C84.0988 195.549 84.6835 195.221 85.3941 195.027C86.1194 194.824 86.8936 194.832 87.7166 195.053C88.5627 195.279 89.2734 195.687 89.8485 196.276C90.4353 196.868 90.8263 197.588 91.0217 198.435C91.2201 199.271 91.1889 200.176 90.928 201.15C90.6702 202.112 90.2433 202.917 89.6473 203.564C89.0514 204.212 88.3497 204.652 87.5425 204.883C86.7468 205.117 85.9259 205.12 85.0797 204.894C84.2683 204.676 83.5978 204.304 83.0682 203.777C82.5532 203.241 82.2065 202.658 82.0279 202.026L80.3461 208.303L78.7639 207.879L82.5282 193.83L84.1104 194.254L83.6398 196.01ZM89.311 200.716C89.5036 199.998 89.5264 199.333 89.3795 198.722C89.2326 198.111 88.9472 197.6 88.5233 197.188C88.111 196.78 87.6093 196.496 87.0182 196.338C86.4386 196.182 85.8608 196.183 85.2847 196.339C84.7234 196.487 84.219 196.793 83.7717 197.257C83.339 197.712 83.028 198.294 82.8385 199.001C82.646 199.719 82.6216 200.39 82.7654 201.012C82.9239 201.626 83.2077 202.143 83.6169 202.564C84.0408 202.975 84.5425 203.259 85.1221 203.414C85.7132 203.572 86.2895 203.578 86.8508 203.43C87.4269 203.274 87.9312 202.968 88.3639 202.512C88.7996 202.045 89.1154 201.447 89.311 200.716ZM100.02 200.418C100.497 199.937 101.096 199.601 101.818 199.409C102.541 199.217 103.302 199.229 104.101 199.443C104.959 199.673 105.676 200.082 106.251 200.671C106.826 201.26 107.211 201.978 107.407 202.826C107.605 203.662 107.574 204.566 107.313 205.54C107.055 206.502 106.628 207.307 106.032 207.955C105.436 208.603 104.735 209.042 103.927 209.273C103.132 209.507 102.311 209.511 101.465 209.284C100.642 209.063 99.9653 208.69 99.4357 208.163C98.9176 207.639 98.5767 207.057 98.4128 206.416L97.9423 208.172L96.3601 207.748L99.8075 194.882L101.39 195.306L100.02 200.418ZM105.696 205.107C105.888 204.388 105.911 203.723 105.764 203.112C105.617 202.502 105.332 201.99 104.908 201.579C104.496 201.17 103.994 200.886 103.403 200.728C102.824 200.573 102.246 200.573 101.67 200.729C101.108 200.877 100.604 201.183 100.157 201.647C99.7239 202.103 99.4129 202.684 99.2234 203.391C99.0309 204.11 99.0065 204.78 99.1503 205.403C99.3088 206.017 99.5926 206.534 100.002 206.954C100.426 207.366 100.927 207.649 101.507 207.804C102.098 207.963 102.674 207.968 103.236 207.82C103.812 207.664 104.316 207.358 104.749 206.903C105.185 206.436 105.5 205.837 105.696 205.107ZM119.113 203.633L116.56 213.161L114.977 212.737L115.355 211.329C114.923 211.735 114.397 212.004 113.778 212.136C113.173 212.26 112.547 212.235 111.897 212.061C111.156 211.862 110.53 211.533 110.019 211.073C109.512 210.602 109.167 210.012 108.983 209.305C108.812 208.6 108.844 207.808 109.08 206.927L110.576 201.345L112.141 201.765L110.701 207.137C110.449 208.076 110.493 208.864 110.831 209.502C111.173 210.127 111.755 210.55 112.578 210.771C113.425 210.998 114.161 210.916 114.788 210.524C115.414 210.133 115.861 209.439 116.128 208.442L117.53 203.209L119.113 203.633ZM123.016 203.02C122.714 202.94 122.487 202.767 122.335 202.502C122.182 202.238 122.146 201.955 122.227 201.653C122.307 201.352 122.48 201.125 122.745 200.972C123.009 200.82 123.292 200.784 123.593 200.864C123.883 200.942 124.099 201.112 124.24 201.373C124.393 201.638 124.429 201.92 124.348 202.222C124.267 202.523 124.094 202.75 123.83 202.903C123.577 203.059 123.306 203.098 123.016 203.02ZM123.366 204.773L120.813 214.301L119.231 213.877L121.784 204.349L123.366 204.773ZM128.539 202.581L125.092 215.447L123.51 215.023L126.957 202.157L128.539 202.581ZM131.922 208.463L130.417 214.079C130.293 214.542 130.303 214.899 130.447 215.149C130.595 215.387 130.912 215.572 131.399 215.702L132.563 216.014L132.205 217.353L130.779 216.971C129.898 216.735 129.292 216.355 128.96 215.831C128.628 215.308 128.587 214.582 128.835 213.655L130.34 208.039L129.105 207.708L129.455 206.404L130.689 206.735L131.332 204.336L132.914 204.759L132.271 207.159L134.758 207.825L134.408 209.129L131.922 208.463Z" fill="#909090"/>
<rect x="0.659247" y="54.5293" width="207.598" height="93.3262" rx="23.5" transform="rotate(-15 0.659247 54.5293)" fill="url(#paint2_linear_0_1)"/>
<rect x="0.659247" y="54.5293" width="207.598" height="93.3262" rx="23.5" transform="rotate(-15 0.659247 54.5293)" stroke="url(#paint3_linear_0_1)"/>
<path d="M37.3979 67.6297L36.3212 63.6114L44.3578 61.458L51.9049 89.6244L47.4617 90.815L40.9912 66.6669L37.3979 67.6297ZM54.0839 73.5528C52.8899 69.0967 52.7051 65.4192 53.5296 62.5204C54.3729 59.5889 56.6363 57.6297 60.3197 56.6427C64.0031 55.6557 66.93 56.2242 69.1003 58.3482C71.2895 60.4395 72.9811 63.7133 74.1752 68.1694C75.383 72.6771 75.5687 76.4095 74.7322 79.3668C73.9146 82.2914 71.6642 84.2471 67.9808 85.2341C64.2974 86.2211 61.3576 85.656 59.1615 83.5389C56.9843 81.3892 55.2917 78.0605 54.0839 73.5528ZM69.8478 69.3289C69.2888 67.2425 68.6743 65.516 68.0045 64.1495C67.3604 62.7761 66.5054 61.749 65.4396 61.0684C64.3669 60.3619 63.0192 60.2261 61.3964 60.6609C59.7736 61.0958 58.6744 61.8872 58.0986 63.0354C57.5159 64.1578 57.2761 65.4782 57.3793 66.9965C57.5082 68.508 57.8522 70.3069 58.4113 72.3933C58.991 74.557 59.6064 76.3384 60.2574 77.7376C60.9083 79.1368 61.7667 80.1767 62.8326 80.8574C63.9241 81.5312 65.2813 81.6507 66.9041 81.2158C68.5268 80.781 69.6296 80.0024 70.2122 78.88C70.8207 77.7507 71.057 76.4175 70.9212 74.8803C70.7854 73.343 70.4276 71.4926 69.8478 69.3289ZM100.795 63.5627L92.9902 65.654L95.1333 73.6519L91.0377 74.7493L88.8947 66.7514L81.09 68.8426L80.0962 65.1335L87.9008 63.0422L85.7578 55.0444L89.8533 53.947L91.9964 61.9448L99.801 59.8536L100.795 63.5627Z" fill="#7266FF"/>
<path d="M55.6942 103.573L53.7693 112.176L54.9946 116.749L53.4124 117.173L52.1871 112.6L46.2011 106.117L47.9571 105.646L52.5922 110.982L53.9381 104.044L55.6942 103.573ZM67.9292 107.786C68.0099 108.087 68.078 108.411 68.1332 108.756L60.5179 110.797C60.8274 111.72 61.3434 112.371 62.0658 112.749C62.7967 113.112 63.5795 113.182 64.414 112.958C65.0979 112.775 65.6239 112.466 65.9921 112.032C66.3688 111.583 66.5784 111.067 66.621 110.484L68.3249 110.028C68.3153 111.012 68.0056 111.896 67.3959 112.681C66.783 113.454 65.9087 113.992 64.7727 114.297C63.8686 114.539 63.0029 114.553 62.1756 114.34C61.3598 114.124 60.6497 113.699 60.0452 113.066C59.4376 112.422 59.0019 111.607 58.7379 110.621C58.4739 109.636 58.4395 108.72 58.6349 107.872C58.8302 107.025 59.2286 106.309 59.83 105.726C60.44 105.128 61.2086 104.704 62.1359 104.456C63.04 104.214 63.8926 104.196 64.6937 104.404C65.4947 104.612 66.1739 105.014 66.7311 105.61C67.2969 106.191 67.6962 106.917 67.9292 107.786ZM66.2063 107.893C66.0448 107.291 65.7733 106.811 65.3918 106.453C65.0072 106.084 64.5535 105.852 64.0309 105.756C63.5167 105.645 62.9814 105.664 62.4251 105.813C61.6253 106.028 61.0097 106.466 60.5784 107.128C60.1587 107.787 60.0294 108.58 60.1905 109.505L66.2063 107.893ZM69.515 107.715C69.2541 106.741 69.2229 105.837 69.4213 105.001C69.6166 104.153 70.0019 103.435 70.577 102.846C71.1638 102.254 71.8803 101.845 72.7264 101.618C73.561 101.394 74.3336 101.38 75.0442 101.575C75.7548 101.769 76.3337 102.099 76.7811 102.563L76.3152 100.824L77.9148 100.396L80.4678 109.923L78.8682 110.352L78.393 108.579C78.2291 109.219 77.8839 109.808 77.3574 110.347C76.8393 110.871 76.1688 111.243 75.3459 111.464C74.4997 111.69 73.6788 111.687 72.8831 111.453C72.0874 111.219 71.3916 110.778 70.7956 110.13C70.1996 109.482 69.7728 108.677 69.515 107.715ZM77.5871 105.571C77.3945 104.852 77.0819 104.265 76.6492 103.809C76.2166 103.354 75.7138 103.054 75.1408 102.909C74.5764 102.75 73.9986 102.749 73.4074 102.908C72.8163 103.066 72.3145 103.35 71.9023 103.758C71.49 104.167 71.2104 104.677 71.0635 105.288C70.9166 105.898 70.9394 106.563 71.1319 107.282C71.3276 108.012 71.6433 108.611 72.0791 109.078C72.5117 109.533 73.0103 109.841 73.5747 110C74.1361 110.148 74.7124 110.143 75.3035 109.984C75.8947 109.826 76.3964 109.542 76.8087 109.134C77.2294 108.71 77.5133 108.193 77.6602 107.582C77.804 106.96 77.7796 106.289 77.5871 105.571ZM82.5853 100.803C82.7176 100.183 82.9983 99.6546 83.4276 99.2166C83.8684 98.7755 84.4597 98.4555 85.2016 98.2568L85.6395 99.8911L85.2222 100.003C83.4488 100.478 82.8198 101.678 83.3354 103.602L84.7237 108.783L83.1415 109.207L80.5885 99.6792L82.1707 99.2552L82.5853 100.803ZM93.0425 106.722C92.3123 106.917 91.6248 106.971 90.98 106.883C90.3321 106.783 89.7811 106.558 89.3269 106.208C88.8696 105.846 88.546 105.38 88.3559 104.81L89.9903 104.372C90.164 104.835 90.4882 105.164 90.9631 105.36C91.4495 105.552 92.0173 105.562 92.6664 105.388C93.2691 105.226 93.7087 104.966 93.985 104.606C94.2613 104.246 94.3451 103.863 94.2363 103.458C94.1245 103.04 93.8568 102.783 93.4331 102.685C93.0062 102.576 92.3781 102.527 91.5487 102.538C90.792 102.542 90.1627 102.512 89.661 102.447C89.1677 102.368 88.7091 102.187 88.2852 101.903C87.8697 101.604 87.5797 101.148 87.4151 100.533C87.2846 100.047 87.31 99.5615 87.491 99.0782C87.6721 98.5949 87.9982 98.1658 88.4693 97.7912C88.9372 97.4049 89.5131 97.1201 90.197 96.9369C91.2518 96.6542 92.1752 96.6926 92.9672 97.0518C93.7591 97.4111 94.3025 98.0481 94.5974 98.963L93.0152 99.387C92.8469 98.8979 92.5369 98.5523 92.0852 98.3503C91.6451 98.1452 91.1179 98.125 90.5036 98.2896C89.9356 98.4418 89.5162 98.6846 89.2453 99.0181C88.9743 99.3516 88.8917 99.7154 88.9973 100.109C89.0811 100.422 89.2495 100.657 89.5025 100.813C89.7639 100.954 90.0624 101.048 90.3979 101.095C90.742 101.127 91.2066 101.145 91.7917 101.15C92.5253 101.152 93.1313 101.188 93.6099 101.259C94.0854 101.318 94.5219 101.487 94.9196 101.765C95.3288 102.041 95.6169 102.467 95.7838 103.043C95.9235 103.565 95.9044 104.073 95.7265 104.568C95.5485 105.063 95.2255 105.503 94.7575 105.89C94.2981 106.261 93.7264 106.539 93.0425 106.722ZM107.544 102.836C106.652 103.075 105.786 103.09 104.947 102.88C104.12 102.667 103.398 102.245 102.782 101.615C102.174 100.97 101.738 100.155 101.474 99.1702C101.214 98.1965 101.192 97.2829 101.411 96.4292C101.638 95.5609 102.064 94.8318 102.688 94.2421C103.31 93.6407 104.073 93.2189 104.977 92.9766C105.881 92.7344 106.752 92.7183 107.591 92.9283C108.427 93.1267 109.153 93.541 109.769 94.171C110.397 94.7979 110.843 95.604 111.107 96.5892C111.371 97.5745 111.383 98.5028 111.145 99.3742C110.915 100.231 110.483 100.962 109.85 101.566C109.217 102.171 108.448 102.594 107.544 102.836ZM107.171 101.445C107.739 101.293 108.237 101.017 108.664 100.617C109.091 100.217 109.384 99.7095 109.542 99.0956C109.712 98.4785 109.695 97.7875 109.49 97.0225C109.285 96.2575 108.96 95.6487 108.516 95.1963C108.072 94.7439 107.572 94.4554 107.017 94.3308C106.459 94.1946 105.895 94.2027 105.327 94.3548C104.748 94.5101 104.25 94.7863 103.835 95.1833C103.428 95.5657 103.151 96.0623 103.004 96.6731C102.857 97.284 102.886 97.9719 103.091 98.7369C103.299 99.5135 103.614 100.131 104.035 100.59C104.468 101.045 104.957 101.343 105.504 101.482C106.048 101.61 106.603 101.597 107.171 101.445ZM116.511 89.8675C117.67 89.5569 118.703 89.6589 119.612 90.1734C120.517 90.6763 121.146 91.5884 121.5 92.9098L123.005 98.5257L121.44 98.945L119.996 93.5551C119.741 92.6046 119.31 91.9439 118.701 91.5728C118.089 91.1901 117.371 91.109 116.548 91.3296C115.714 91.5532 115.117 91.9926 114.759 92.6477C114.412 93.2998 114.372 94.1242 114.639 95.121L116.05 100.389L114.468 100.813L111.915 91.2852L113.497 90.8613L113.861 92.2175C114.043 91.6468 114.365 91.1567 114.827 90.7472C115.3 90.3347 115.862 90.0414 116.511 89.8675ZM139.083 83.8193C139.825 83.6205 140.527 83.6 141.191 83.7576C141.851 83.9037 142.432 84.2389 142.932 84.7631C143.433 85.2874 143.802 85.99 144.038 86.8709L145.542 92.4868L143.978 92.9061L142.533 87.5162C142.279 86.5657 141.847 85.905 141.238 85.5339C140.638 85.1481 139.938 85.0624 139.138 85.2767C138.315 85.4972 137.732 85.9393 137.388 86.6029C137.041 87.255 137.001 88.0794 137.268 89.0762L138.675 94.327L137.11 94.7463L135.666 89.3564C135.411 88.4059 134.979 87.7452 134.37 87.3741C133.77 86.9883 133.07 86.9026 132.27 87.1169C131.447 87.3374 130.864 87.7795 130.52 88.4431C130.173 89.0952 130.133 89.9196 130.4 90.9164L131.807 96.1672L130.225 96.5911L127.672 87.0633L129.254 86.6393L129.622 88.0129C129.801 87.4306 130.116 86.9363 130.566 86.5299C131.028 86.1204 131.578 85.8303 132.215 85.6595C133.015 85.4452 133.77 85.4354 134.481 85.6301C135.191 85.8248 135.791 86.2295 136.278 86.8442C136.365 86.1005 136.665 85.4609 137.18 84.9254C137.695 84.3899 138.33 84.0212 139.083 83.8193ZM146.261 87.151C146 86.1774 145.969 85.2726 146.167 84.4368C146.362 83.5894 146.748 82.8712 147.323 82.2823C147.91 81.6902 148.626 81.2808 149.472 81.0541C150.307 80.8305 151.079 80.816 151.79 81.0108C152.501 81.2055 153.08 81.5349 153.527 81.9989L153.061 80.2602L154.661 79.8316L157.214 89.3595L155.614 89.7881L155.139 88.0147C154.975 88.6549 154.63 89.2443 154.103 89.783C153.585 90.3069 152.915 90.6791 152.092 90.8996C151.246 91.1264 150.425 91.1227 149.629 90.8887C148.833 90.6546 148.137 90.2137 147.541 89.5659C146.945 88.9181 146.519 88.1131 146.261 87.151ZM154.333 85.0068C154.14 84.2881 153.828 83.701 153.395 83.2455C152.962 82.7899 152.46 82.4898 151.887 82.3452C151.322 82.1859 150.744 82.1854 150.153 82.3438C149.562 82.5022 149.06 82.7857 148.648 83.1944C148.236 83.603 147.956 84.1127 147.809 84.7236C147.662 85.3344 147.685 85.9991 147.878 86.7178C148.073 87.448 148.389 88.0467 148.825 88.5138C149.258 88.9694 149.756 89.2768 150.321 89.4362C150.882 89.5839 151.458 89.5786 152.049 89.4202C152.64 89.2618 153.142 88.9783 153.554 88.5696C153.975 88.1463 154.259 87.6292 154.406 87.0184C154.55 86.396 154.525 85.7254 154.333 85.0068ZM159.331 80.2387C159.463 79.6193 159.744 79.0907 160.173 78.6526C160.614 78.2115 161.206 77.8915 161.947 77.6928L162.385 79.3271L161.968 79.4389C160.195 79.9141 159.566 81.1138 160.081 83.0379L161.47 88.2191L159.887 88.6431L157.334 79.1152L158.917 78.6912L159.331 80.2387ZM171.694 85.4796L166.828 82.2736L167.956 86.4812L166.373 86.9051L162.926 74.039L164.508 73.6151L166.535 81.1783L169.071 75.9703L171.279 75.3787L168.065 81.3272L173.85 84.9019L171.694 85.4796ZM182.64 77.0491C182.721 77.3505 182.789 77.6739 182.844 78.0193L175.229 80.0599C175.539 80.9832 176.055 81.6338 176.777 82.0117C177.508 82.3749 178.291 82.4447 179.125 82.2211C179.809 82.0379 180.335 81.7292 180.703 81.2951C181.08 80.8463 181.29 80.3305 181.332 79.7476L183.036 79.2911C183.027 80.2751 182.717 81.1594 182.107 81.9439C181.494 82.7169 180.62 83.2555 179.484 83.5599C178.58 83.8021 177.714 83.8167 176.887 83.6036C176.071 83.3873 175.361 82.9627 174.756 82.3295C174.149 81.6848 173.713 80.8698 173.449 79.8846C173.185 78.8994 173.151 77.983 173.346 77.1356C173.541 76.2882 173.94 75.5727 174.541 74.9891C175.151 74.3909 175.92 73.9675 176.847 73.719C177.751 73.4768 178.604 73.4595 179.405 73.6673C180.206 73.875 180.885 74.2769 181.442 74.873C182.008 75.4544 182.407 76.1798 182.64 77.0491ZM180.918 77.1567C180.756 76.5539 180.485 76.0738 180.103 75.7164C179.718 75.3474 179.265 75.1149 178.742 75.0189C178.228 74.9082 177.693 74.9274 177.136 75.0764C176.337 75.2907 175.721 75.729 175.29 76.3912C174.87 77.0503 174.741 77.8427 174.902 78.7686L180.918 77.1567ZM185.83 72.8776L187.334 78.4934C187.459 78.9571 187.646 79.261 187.895 79.4053C188.142 79.5379 188.509 79.5391 188.996 79.4086L190.161 79.0965L190.519 80.4352L189.094 80.8173C188.213 81.0533 187.498 81.0275 186.949 80.7398C186.399 80.4522 186.001 79.8447 185.752 78.9174L184.247 73.3015L183.013 73.6323L182.663 72.3283L183.898 71.9975L183.255 69.5981L184.837 69.1742L185.48 71.5736L187.966 70.9074L188.316 72.2114L185.83 72.8776Z" fill="#909090"/>
<defs>
<linearGradient id="paint0_linear_0_1" x1="128.76" y1="111.187" x2="128.76" y2="205.513" gradientUnits="userSpaceOnUse">
<stop stop-color="white"/>
<stop offset="1" stop-color="white"/>
</linearGradient>
<linearGradient id="paint1_linear_0_1" x1="222.396" y1="113.865" x2="43.9128" y2="202.94" gradientUnits="userSpaceOnUse">
<stop stop-color="#00FAFE" stop-opacity="0.37"/>
<stop offset="1" stop-color="#0E1319" stop-opacity="0.19"/>
</linearGradient>
<linearGradient id="paint2_linear_0_1" x1="104.346" y1="54.1758" x2="104.346" y2="148.502" gradientUnits="userSpaceOnUse">
<stop stop-color="white"/>
<stop offset="1" stop-color="white"/>
</linearGradient>
<linearGradient id="paint3_linear_0_1" x1="161.518" y1="56.5922" x2="173.511" y2="126.715" gradientUnits="userSpaceOnUse">
<stop stop-color="#00FAFE" stop-opacity="0.37"/>
<stop offset="1" stop-color="#0E1319" stop-opacity="0.19"/>
</linearGradient>
</defs>
</svg>
