<svg width="227" height="258" viewBox="0 0 227 258" fill="none" xmlns="http://www.w3.org/2000/svg">
<rect x="25.8145" y="0.798896" width="207.598" height="93.3262" rx="23.5" transform="rotate(15 25.8145 0.798896)" fill="url(#paint0_linear_0_1)"/>
<rect x="25.8145" y="0.798896" width="207.598" height="93.3262" rx="23.5" transform="rotate(15 25.8145 0.798896)" stroke="url(#paint1_linear_0_1)"/>
<path d="M60.9433 36.3033C61.7397 33.9492 63.1545 32.3268 65.1877 31.436C67.2466 30.5521 69.5897 30.4621 72.2171 31.1661C74.0201 31.6492 75.4922 32.3888 76.6333 33.3847C77.7744 34.3807 78.5314 35.5222 78.9044 36.8092C79.2773 38.0963 79.2774 39.4352 78.9047 40.8262C78.4768 42.4232 77.686 43.6745 76.5323 44.5801C75.3786 45.4856 74.1576 45.9729 72.8692 46.0418L72.8278 46.1963C74.2232 47.0672 75.1804 48.2347 75.6991 49.6988C76.2247 51.1372 76.2322 52.8094 75.7214 54.7155C75.3142 56.2353 74.6041 57.4944 73.5912 58.4929C72.5782 59.4914 71.296 60.1555 69.7445 60.4852C68.1998 60.7891 66.4745 60.6857 64.5684 60.175C61.7865 59.4296 59.6839 58.1069 58.2604 56.2071C56.8696 54.2884 56.4687 51.9724 57.0577 49.2591L61.3078 50.3979C61.045 51.7907 61.2728 53.0526 61.9912 54.1838C62.7165 55.2892 63.8905 56.0593 65.5133 56.4941C67.0845 56.9151 68.409 56.8145 69.4868 56.1922C70.5715 55.5442 71.2967 54.5376 71.6625 53.1724C72.1456 51.3694 71.9077 49.9391 70.9488 48.8815C70.0225 47.8051 68.3744 46.9494 66.0047 46.3144L65.0001 46.0452L65.9733 42.4134L67.0165 42.6929C69.1098 43.2262 70.7871 43.3029 72.0484 42.9231C73.3354 42.5501 74.1722 41.6425 74.5587 40.2C74.89 38.9636 74.753 37.8778 74.1478 36.9427C73.5494 35.9817 72.5161 35.3045 71.0479 34.9111C69.6055 34.5246 68.3849 34.5979 67.3863 35.1309C66.3945 35.6382 65.6764 36.412 65.232 37.4525L60.9433 36.3033ZM82.1496 49.2324C83.3436 44.7763 85.0223 41.4991 87.1858 39.4009C89.3819 37.2838 92.3216 36.7188 96.005 37.7057C99.6884 38.6927 101.939 40.6485 102.757 43.5731C103.607 46.4788 103.435 50.1597 102.241 54.6159C101.033 59.1235 99.3276 62.4488 97.1246 64.5916C94.9543 66.7156 92.0274 67.2841 88.344 66.2971C84.6606 65.3102 82.3972 63.3509 81.5539 60.4195C80.7432 57.4691 80.9418 53.7401 82.1496 49.2324ZM97.9135 53.4564C98.4725 51.37 98.8037 49.5676 98.9068 48.0492C99.0357 46.5377 98.8089 45.2208 98.2262 44.0984C97.6504 42.9503 96.5511 42.1588 94.9283 41.724C93.3056 41.2892 91.9578 41.425 90.8851 42.1314C89.8193 42.8121 88.9515 43.8357 88.2816 45.2022C87.6375 46.5756 87.036 48.3056 86.4769 50.392C85.8972 52.5556 85.5394 54.4061 85.4036 55.9433C85.2677 57.4805 85.4912 58.8103 86.0739 59.9327C86.6823 61.062 87.7979 61.8441 89.4207 62.2789C91.0434 62.7137 92.3877 62.5908 93.4535 61.9101C94.5451 61.2363 95.4164 60.1999 96.0674 58.8007C96.7184 57.4015 97.3337 55.62 97.9135 53.4564ZM106.901 55.8647C108.095 51.4085 109.774 48.1314 111.938 46.0331C114.134 43.9161 117.073 43.351 120.757 44.338C124.44 45.3249 126.691 47.2807 127.508 50.2053C128.359 53.111 128.187 56.792 126.993 61.2481C125.785 65.7558 124.079 69.081 121.876 71.2239C119.706 73.3478 116.779 73.9163 113.096 72.9294C109.412 71.9424 107.149 69.9832 106.306 67.0517C105.495 64.1013 105.694 60.3723 106.901 55.8647ZM122.665 60.0886C123.224 58.0022 123.556 56.1998 123.659 54.6815C123.788 53.17 123.561 51.8531 122.978 50.7307C122.402 49.5825 121.303 48.791 119.68 48.3562C118.057 47.9214 116.71 48.0572 115.637 48.7636C114.571 49.4443 113.703 50.4679 113.033 51.8344C112.389 53.2079 111.788 54.9378 111.229 57.0242C110.649 59.1879 110.291 61.0383 110.155 62.5755C110.02 64.1128 110.243 65.4426 110.826 66.565C111.434 67.6943 112.55 68.4763 114.173 68.9111C115.795 69.3459 117.14 69.223 118.205 68.5423C119.297 67.8686 120.168 66.8321 120.819 65.4329C121.47 64.0337 122.086 62.2523 122.665 60.0886ZM152.349 70.5685L144.545 68.4772L142.402 76.4751L138.306 75.3777L140.449 67.3799L132.645 65.2886L133.638 61.5794L141.443 63.6707L143.586 55.6728L147.682 56.7702L145.539 64.7681L153.343 66.8593L152.349 70.5685Z" fill="#7266FF"/>
<path d="M59.9531 73.7365L56.706 85.855L55.1238 85.4311L56.596 79.9369L50.4237 78.2831L48.9515 83.7772L47.3694 83.3533L50.6165 71.2348L52.1987 71.6587L50.7731 76.9791L56.9454 78.6329L58.3709 73.3126L59.9531 73.7365ZM60.1022 81.6218C60.3631 80.6482 60.7885 79.849 61.3782 79.2244C61.9711 78.5881 62.6638 78.1588 63.4564 77.9364C64.2606 77.717 65.0857 77.7207 65.9319 77.9474C66.7664 78.1711 67.4427 78.5448 67.9608 79.0688C68.4788 79.5927 68.8156 80.1674 68.971 80.793L69.4368 79.0543L71.0364 79.4829L68.4834 89.0108L66.8838 88.5822L67.359 86.8087C66.897 87.2813 66.3033 87.6191 65.578 87.8223C64.8674 88.017 64.1006 88.0041 63.2776 87.7836C62.4315 87.5569 61.7224 87.1433 61.1503 86.5428C60.5783 85.9422 60.1961 85.2125 60.0039 84.3534C59.8117 83.4944 59.8445 82.5839 60.1022 81.6218ZM68.165 83.8009C68.3576 83.0822 68.3804 82.4175 68.2335 81.8066C68.0866 81.1958 67.8012 80.6845 67.3773 80.2728C66.9681 79.8525 66.468 79.5632 65.8768 79.4048C65.2857 79.2464 64.7094 79.2411 64.148 79.3889C63.5867 79.5366 63.0897 79.8382 62.657 80.2938C62.2244 80.7493 61.9118 81.3364 61.7192 82.0551C61.5235 82.7853 61.4976 83.4616 61.6414 84.0841C61.7883 84.6949 62.0664 85.2104 62.4755 85.6307C62.8878 86.0393 63.3895 86.3228 63.9807 86.4812C64.5718 86.6396 65.1481 86.6449 65.7095 86.4972C66.2855 86.341 66.7899 86.0351 67.2225 85.5795C67.6583 85.1124 67.9724 84.5195 68.165 83.8009ZM74.8218 82.3793C75.2807 81.9184 75.8655 81.5906 76.5761 81.3959C77.3014 81.1927 78.0756 81.2013 78.8985 81.4218C79.7447 81.6486 80.4553 82.0564 81.0305 82.6453C81.6173 83.2374 82.0083 83.9571 82.2036 84.8045C82.4021 85.6404 82.3708 86.5451 82.11 87.5188C81.8522 88.4808 81.4253 89.2858 80.8293 89.9336C80.2333 90.5814 79.5317 91.0208 78.7244 91.2517C77.9288 91.4858 77.1078 91.4894 76.2617 91.2627C75.4503 91.0453 74.7798 90.6731 74.2502 90.146C73.7352 89.6105 73.3885 89.0269 73.2099 88.3951L71.5281 94.6717L69.9459 94.2478L73.7102 80.1993L75.2923 80.6233L74.8218 82.3793ZM80.493 87.0855C80.6856 86.3668 80.7084 85.7021 80.5615 85.0913C80.4146 84.4804 80.1292 83.9691 79.7053 83.5574C79.293 83.1488 78.7913 82.8653 78.2001 82.7069C77.6206 82.5516 77.0428 82.552 76.4667 82.7083C75.9054 82.856 75.401 83.1619 74.9537 83.6259C74.521 84.0815 74.21 84.6628 74.0205 85.3698C73.8279 86.0885 73.8036 86.759 73.9474 87.3814C74.1059 87.9954 74.3897 88.5125 74.7989 88.9327C75.2228 89.3444 75.7245 89.6279 76.304 89.7832C76.8952 89.9416 77.4714 89.947 78.0328 89.7992C78.6089 89.643 79.1132 89.3371 79.5459 88.8816C79.9816 88.4144 80.2973 87.8157 80.493 87.0855ZM86.5714 85.5276C87.0303 85.0667 87.6151 84.7389 88.3257 84.5442C89.051 84.341 89.8251 84.3496 90.6481 84.5701C91.4943 84.7969 92.2049 85.2047 92.7801 85.7936C93.3669 86.3857 93.7579 87.1054 93.9532 87.9528C94.1517 88.7887 94.1204 89.6934 93.8595 90.6671C93.6018 91.6291 93.1749 92.4341 92.5789 93.0819C91.9829 93.7297 91.2813 94.1691 90.474 94.4C89.6783 94.634 88.8574 94.6377 88.0113 94.411C87.1999 94.1936 86.5294 93.8213 85.9997 93.2943C85.4848 92.7588 85.138 92.1751 84.9595 91.5434L83.2777 97.82L81.6955 97.396L85.4597 83.3476L87.0419 83.7716L86.5714 85.5276ZM92.2426 90.2338C92.4351 89.5151 92.458 88.8504 92.3111 88.2396C92.1641 87.6287 91.8788 87.1174 91.4549 86.7057C91.0426 86.2971 90.5409 86.0136 89.9497 85.8552C89.3702 85.6999 88.7924 85.7003 88.2163 85.8566C87.6549 86.0043 87.1506 86.3102 86.7032 86.7742C86.2706 87.2298 85.9595 87.8111 85.7701 88.5181C85.5775 89.2368 85.5531 89.9073 85.6969 90.5297C85.8554 91.1437 86.1393 91.6608 86.5485 92.081C86.9723 92.4927 87.4741 92.7762 88.0536 92.9315C88.6448 93.0899 89.221 93.0953 89.7824 92.9475C90.3585 92.7913 90.8628 92.4854 91.2955 92.0299C91.7312 91.5627 92.0469 90.964 92.2426 90.2338ZM105.416 88.6948L95.9233 101.171L94.2889 100.733L97.3966 96.6462L96.0792 86.1931L97.8352 86.6636L98.7573 95.1846L103.781 88.2569L105.416 88.6948ZM110.123 93.6646C110.44 92.4823 110.991 91.4931 111.776 90.6971C112.564 89.8895 113.487 89.3418 114.545 89.054C115.616 88.7692 116.713 88.7775 117.837 89.0788C119.158 89.4328 120.226 90.0606 121.041 90.9621C121.855 91.8636 122.332 92.9603 122.47 94.2521L120.575 93.7443C120.434 92.924 120.098 92.2314 119.566 91.6665C119.046 91.1047 118.345 90.7058 117.464 90.4697C116.618 90.243 115.806 90.2366 115.028 90.4506C114.25 90.6645 113.572 91.0854 112.994 91.7131C112.419 92.3293 112.001 93.1242 111.74 94.0978C111.483 95.0599 111.447 95.9573 111.634 96.79C111.824 97.6112 112.202 98.3089 112.769 98.8831C113.336 99.4573 114.042 99.8578 114.888 100.085C115.769 100.321 116.574 100.331 117.302 100.116C118.045 99.8931 118.683 99.4614 119.214 98.8212L121.11 99.329C120.347 100.367 119.388 101.073 118.232 101.446C117.079 101.808 115.841 101.812 114.52 101.458C113.396 101.157 112.44 100.621 111.652 99.8511C110.879 99.0725 110.352 98.1424 110.071 97.0606C109.789 95.9789 109.807 94.8469 110.123 93.6646ZM127.549 91.0474L124.101 103.914L122.519 103.49L125.967 90.6235L127.549 91.0474ZM130.583 93.7798C130.281 93.699 130.054 93.5264 129.902 93.2618C129.749 92.9973 129.713 92.7143 129.794 92.4129C129.874 92.1116 130.047 91.8845 130.311 91.7318C130.576 91.5791 130.859 91.5431 131.16 91.6238C131.45 91.7015 131.666 91.871 131.807 92.1324C131.959 92.397 131.995 92.6799 131.915 92.9813C131.834 93.2827 131.661 93.5097 131.397 93.6625C131.144 93.8183 130.872 93.8574 130.583 93.7798ZM130.933 95.5322L128.38 105.06L126.798 104.636L129.351 95.1082L130.933 95.5322ZM141.144 102.983C141.064 103.284 140.961 103.598 140.836 103.925L133.221 101.885C133.027 102.839 133.148 103.661 133.585 104.349C134.037 105.029 134.68 105.481 135.514 105.704C136.198 105.888 136.808 105.883 137.344 105.692C137.894 105.491 138.334 105.149 138.662 104.666L140.366 105.122C139.866 105.97 139.155 106.581 138.235 106.955C137.318 107.318 136.291 107.348 135.155 107.043C134.251 106.801 133.494 106.381 132.884 105.782C132.286 105.187 131.883 104.464 131.676 103.614C131.473 102.752 131.503 101.828 131.767 100.843C132.031 99.8576 132.459 99.0469 133.052 98.4106C133.645 97.7744 134.348 97.354 135.16 97.1493C135.988 96.9362 136.865 96.9539 137.792 97.2023C138.696 97.4446 139.443 97.8559 140.033 98.4364C140.623 99.0168 141.01 99.7045 141.195 100.499C141.394 101.286 141.377 102.114 141.144 102.983ZM139.598 102.215C139.76 101.612 139.765 101.06 139.613 100.56C139.465 100.048 139.188 99.62 138.783 99.2755C138.393 98.9226 137.92 98.6716 137.364 98.5225C136.564 98.3082 135.812 98.3799 135.107 98.7378C134.414 99.0987 133.906 99.7203 133.583 100.603L139.598 102.215ZM149.1 100.214C150.259 100.524 151.103 101.129 151.633 102.029C152.165 102.917 152.254 104.022 151.9 105.343L150.395 110.959L148.83 110.54L150.275 105.15C150.529 104.199 150.486 103.411 150.144 102.786C149.806 102.148 149.225 101.719 148.402 101.499C147.567 101.275 146.831 101.357 146.193 101.745C145.566 102.137 145.119 102.831 144.852 103.827L143.441 109.096L141.858 108.672L144.411 99.1437L145.994 99.5676L145.63 100.924C146.074 100.521 146.598 100.257 147.202 100.134C147.818 100.013 148.451 100.04 149.1 100.214ZM157.113 103.945L155.608 109.561C155.484 110.024 155.494 110.381 155.639 110.631C155.786 110.869 156.103 111.053 156.59 111.184L157.755 111.496L157.396 112.835L155.97 112.453C155.089 112.217 154.483 111.837 154.151 111.313C153.819 110.789 153.778 110.064 154.026 109.137L155.531 103.521L154.297 103.19L154.646 101.886L155.88 102.217L156.523 99.8174L158.106 100.241L157.463 102.641L159.949 103.307L159.6 104.611L157.113 103.945ZM162.644 114.409C161.914 114.213 161.292 113.916 160.777 113.517C160.266 113.107 159.901 112.637 159.683 112.106C159.468 111.564 159.421 110.998 159.541 110.409L161.176 110.847C161.095 111.335 161.211 111.782 161.524 112.189C161.849 112.599 162.336 112.891 162.985 113.065C163.588 113.227 164.099 113.221 164.518 113.047C164.937 112.874 165.201 112.584 165.31 112.179C165.422 111.762 165.319 111.405 165.001 111.108C164.686 110.8 164.166 110.444 163.442 110.038C162.785 109.664 162.255 109.323 161.853 109.016C161.465 108.701 161.159 108.315 160.934 107.857C160.723 107.39 160.7 106.85 160.865 106.236C160.995 105.749 161.26 105.342 161.658 105.013C162.057 104.685 162.554 104.477 163.149 104.388C163.747 104.287 164.388 104.329 165.072 104.512C166.127 104.795 166.908 105.29 167.414 105.997C167.92 106.704 168.072 107.527 167.87 108.467L166.288 108.043C166.387 107.535 166.291 107.081 166.001 106.68C165.722 106.283 165.276 106.001 164.661 105.837C164.093 105.685 163.609 105.685 163.207 105.839C162.806 105.992 162.553 106.266 162.447 106.66C162.363 106.973 162.392 107.26 162.533 107.521C162.689 107.774 162.9 108.005 163.167 108.213C163.449 108.413 163.843 108.661 164.347 108.958C164.981 109.326 165.488 109.661 165.867 109.961C166.249 110.25 166.543 110.615 166.748 111.055C166.965 111.498 167.001 112.011 166.857 112.593C166.718 113.115 166.447 113.546 166.045 113.885C165.644 114.225 165.144 114.445 164.545 114.546C163.962 114.638 163.328 114.592 162.644 114.409Z" fill="#909090"/>
<rect x="0.659247" y="166.529" width="207.598" height="93.3262" rx="23.5" transform="rotate(-15 0.659247 166.529)" fill="white"/>
<rect x="0.659247" y="166.529" width="207.598" height="93.3262" rx="23.5" transform="rotate(-15 0.659247 166.529)" stroke="url(#paint2_linear_0_1)"/>
<path d="M55.3725 194.4L54.4822 191.078L62.4742 168.976L67.8061 167.547L72.6615 185.668L76.2548 184.705L77.2797 188.53L73.6864 189.493L75.2601 195.366L70.9327 196.526L69.3591 190.653L55.3725 194.4ZM64.8728 173.137L59.409 189.219L68.5274 186.776L64.8728 173.137ZM78.6311 178.975C77.437 174.519 77.2523 170.841 78.0768 167.943C78.9201 165.011 81.1835 163.052 84.8669 162.065C88.5503 161.078 91.4771 161.647 93.6475 163.77C95.8367 165.862 97.5283 169.136 98.7223 173.592C99.9301 178.099 100.116 181.832 99.2794 184.789C98.4618 187.714 96.2113 189.669 92.5279 190.656C88.8445 191.643 85.9048 191.078 83.7087 188.961C81.5314 186.811 79.8389 183.483 78.6311 178.975ZM94.395 174.751C93.8359 172.665 93.2215 170.938 92.5516 169.572C91.9076 168.198 91.0526 167.171 89.9868 166.491C88.9141 165.784 87.5663 165.648 85.9436 166.083C84.3208 166.518 83.2215 167.31 82.6457 168.458C82.0631 169.58 81.8233 170.9 81.9265 172.419C82.0554 173.93 82.3994 175.729 82.9584 177.816C83.5382 179.979 84.1535 181.761 84.8045 183.16C85.4555 184.559 86.3139 185.599 87.3797 186.28C88.4713 186.953 89.8285 187.073 91.4512 186.638C93.074 186.203 94.1767 185.425 94.7594 184.302C95.3679 183.173 95.6042 181.84 95.4683 180.303C95.3325 178.765 94.9747 176.915 94.395 174.751ZM125.342 168.985L117.537 171.076L119.68 179.074L115.585 180.172L113.442 172.174L105.637 174.265L104.643 170.556L112.448 168.465L110.305 160.467L114.401 159.369L116.544 167.367L124.348 165.276L125.342 168.985Z" fill="#7166FF"/>
<path d="M67.3708 225.563C66.571 225.777 65.8151 225.831 65.103 225.723C64.3994 225.601 63.8012 225.339 63.3083 224.937C62.8124 224.523 62.4701 223.988 62.2814 223.33L63.9679 222.878C64.1781 223.431 64.5388 223.85 65.0501 224.135C65.5699 224.406 66.2238 224.435 67.012 224.224C67.7655 224.022 68.3069 223.678 68.6364 223.193C68.9744 222.692 69.0642 222.146 68.9058 221.555C68.7815 221.091 68.5531 220.749 68.2204 220.527C67.8878 220.306 67.51 220.171 67.0871 220.123C66.6642 220.075 66.105 220.051 65.4093 220.051C64.5536 220.056 63.8544 220.02 63.3116 219.942C62.7805 219.861 62.2821 219.646 61.8163 219.299C61.359 218.937 61.0295 218.379 60.8276 217.626C60.6505 216.965 60.6618 216.335 60.8613 215.735C61.0607 215.135 61.4246 214.615 61.9528 214.175C62.4926 213.732 63.1566 213.405 63.9448 213.194C65.0807 212.89 66.0841 212.925 66.9549 213.301C67.8373 213.673 68.4507 214.316 68.795 215.23L67.0563 215.696C66.8741 215.248 66.522 214.908 66 214.675C65.4748 214.43 64.8587 214.403 64.1517 214.592C63.491 214.769 62.9986 215.088 62.6745 215.547C62.3472 215.995 62.2659 216.526 62.4306 217.141C62.5486 217.581 62.7666 217.908 63.0845 218.121C63.4141 218.331 63.7787 218.463 64.1784 218.517C64.5866 218.557 65.1459 218.581 65.8562 218.589C66.715 218.595 67.4174 218.643 67.9632 218.733C68.5059 218.811 69.0117 219.03 69.4806 219.388C69.9463 219.736 70.2817 220.292 70.4867 221.057C70.6451 221.648 70.6377 222.246 70.4645 222.852C70.2913 223.457 69.941 224.005 69.4136 224.494C68.8863 224.983 68.2053 225.339 67.3708 225.563ZM79.0205 222.311L74.1549 219.105L75.2824 223.313L73.7002 223.737L70.2527 210.87L71.8349 210.446L73.8614 218.01L76.398 212.802L78.6061 212.21L75.3921 218.159L81.1764 221.733L79.0205 222.311ZM80.4977 210.045C80.1964 210.125 79.9134 210.089 79.6489 209.937C79.3843 209.784 79.2117 209.557 79.1309 209.256C79.0502 208.954 79.0862 208.671 79.2389 208.407C79.3916 208.142 79.6187 207.969 79.9201 207.889C80.2098 207.811 80.4812 207.85 80.7342 208.006C80.9987 208.159 81.1714 208.386 81.2521 208.687C81.3329 208.989 81.2969 209.271 81.1441 209.536C81.003 209.797 80.7875 209.967 80.4977 210.045ZM81.6774 211.387L84.2304 220.915L82.6482 221.339L80.0952 211.811L81.6774 211.387ZM85.0617 206.902L88.5091 219.768L86.9269 220.192L83.4795 207.326L85.0617 206.902ZM89.3404 205.756L92.7879 218.622L91.2057 219.046L87.7582 206.18L89.3404 205.756ZM97.1581 208.637L95.1586 209.172L97.3622 217.396L95.78 217.82L93.5764 209.596L92.342 209.927L91.9926 208.623L93.227 208.292L93.0453 207.614C92.7596 206.548 92.8239 205.698 93.2382 205.066C93.6611 204.418 94.481 203.931 95.6981 203.605L96.0521 204.926C95.3567 205.113 94.9013 205.384 94.6861 205.74C94.4793 206.081 94.4598 206.564 94.6275 207.19L94.8092 207.868L96.8087 207.333L97.1581 208.637ZM107.103 204.574L109.656 214.102L108.074 214.526L107.697 213.118C107.526 213.685 107.205 214.181 106.735 214.605C106.273 215.015 105.718 215.306 105.069 215.48C104.327 215.679 103.62 215.707 102.948 215.564C102.273 215.41 101.679 215.072 101.167 214.551C100.666 214.026 100.298 213.324 100.062 212.443L98.5665 206.862L100.131 206.442L101.571 211.815C101.822 212.754 102.254 213.415 102.866 213.797C103.475 214.168 104.191 214.244 105.014 214.023C105.86 213.796 106.456 213.357 106.803 212.705C107.151 212.053 107.191 211.228 106.923 210.232L105.521 204.998L107.103 204.574ZM110.462 200.096L113.91 212.962L112.328 213.386L108.88 200.52L110.462 200.096ZM114.741 198.95L118.189 211.816L116.607 212.24L113.159 199.374L114.741 198.95ZM129.732 195.734L130.077 197.021L126.774 197.906L129.676 208.738L128.094 209.162L125.191 198.33L121.871 199.22L121.526 197.933L129.732 195.734ZM133.05 202.691C132.789 201.717 132.758 200.812 132.956 199.976C133.152 199.129 133.537 198.411 134.112 197.822C134.699 197.23 135.415 196.82 136.262 196.594C137.096 196.37 137.869 196.356 138.579 196.55C139.29 196.745 139.869 197.074 140.316 197.538L139.85 195.8L141.45 195.371L144.003 204.899L142.403 205.328L141.928 203.554C141.764 204.194 141.419 204.784 140.892 205.322C140.374 205.846 139.704 206.219 138.881 206.439C138.035 206.666 137.214 206.662 136.418 206.428C135.623 206.194 134.927 205.753 134.331 205.105C133.735 204.458 133.308 203.653 133.05 202.691ZM141.122 200.546C140.93 199.828 140.617 199.24 140.184 198.785C139.752 198.329 139.249 198.029 138.676 197.885C138.111 197.725 137.534 197.725 136.943 197.883C136.351 198.042 135.85 198.325 135.437 198.734C135.025 199.142 134.745 199.652 134.599 200.263C134.452 200.874 134.474 201.539 134.667 202.257C134.863 202.987 135.178 203.586 135.614 204.053C136.047 204.509 136.545 204.816 137.11 204.976C137.671 205.123 138.247 205.118 138.839 204.96C139.43 204.801 139.931 204.518 140.344 204.109C140.765 203.686 141.048 203.169 141.195 202.558C141.339 201.935 141.315 201.265 141.122 200.546ZM144.811 190.892L148.259 203.759L146.677 204.183L143.229 191.316L144.811 190.892ZM158.274 195.578C158.355 195.879 158.423 196.202 158.478 196.548L150.863 198.588C151.173 199.512 151.689 200.162 152.411 200.54C153.142 200.903 153.925 200.973 154.759 200.75C155.443 200.566 155.969 200.258 156.337 199.824C156.714 199.375 156.924 198.859 156.966 198.276L158.67 197.82C158.66 198.804 158.351 199.688 157.741 200.472C157.128 201.245 156.254 201.784 155.118 202.088C154.214 202.331 153.348 202.345 152.521 202.132C151.705 201.916 150.995 201.491 150.39 200.858C149.783 200.213 149.347 199.398 149.083 198.413C148.819 197.428 148.785 196.512 148.98 195.664C149.175 194.817 149.574 194.101 150.175 193.518C150.785 192.919 151.554 192.496 152.481 192.248C153.385 192.005 154.238 191.988 155.039 192.196C155.84 192.404 156.519 192.805 157.076 193.402C157.642 193.983 158.041 194.708 158.274 195.578ZM156.552 195.685C156.39 195.082 156.119 194.602 155.737 194.245C155.352 193.876 154.899 193.643 154.376 193.547C153.862 193.437 153.327 193.456 152.77 193.605C151.97 193.819 151.355 194.258 150.924 194.92C150.504 195.579 150.375 196.371 150.536 197.297L156.552 195.685ZM163.78 189.201C164.939 188.891 165.973 188.993 166.881 189.507C167.786 190.01 168.415 190.922 168.769 192.244L170.274 197.86L168.709 198.279L167.265 192.889C167.01 191.939 166.579 191.278 165.97 190.907C165.358 190.524 164.64 190.443 163.817 190.664C162.983 190.887 162.386 191.327 162.028 191.982C161.681 192.634 161.641 193.458 161.908 194.455L163.319 199.723L161.737 200.147L159.184 190.619L160.766 190.195L161.13 191.551C161.312 190.981 161.634 190.491 162.096 190.081C162.569 189.669 163.131 189.375 163.78 189.201ZM172.585 188.426L174.09 194.042C174.214 194.506 174.401 194.81 174.651 194.954C174.897 195.087 175.264 195.088 175.751 194.957L176.916 194.645L177.275 195.984L175.849 196.366C174.968 196.602 174.253 196.576 173.704 196.288C173.155 196.001 172.756 195.393 172.507 194.466L171.003 188.85L169.768 189.181L169.419 187.877L170.653 187.546L170.01 185.147L171.593 184.723L172.235 187.122L174.722 186.456L175.071 187.76L172.585 188.426Z" fill="#909090"/>
<defs>
<linearGradient id="paint0_linear_0_1" x1="129.76" y1="0.186523" x2="129.76" y2="94.5128" gradientUnits="userSpaceOnUse">
<stop stop-color="white"/>
<stop offset="1" stop-color="white"/>
</linearGradient>
<linearGradient id="paint1_linear_0_1" x1="223.396" y1="2.86504" x2="44.9128" y2="91.9401" gradientUnits="userSpaceOnUse">
<stop stop-color="#00FAFE" stop-opacity="0.37"/>
<stop offset="1" stop-color="#0E1319" stop-opacity="0.19"/>
</linearGradient>
<linearGradient id="paint2_linear_0_1" x1="0.046875" y1="166.176" x2="212.171" y2="240.443" gradientUnits="userSpaceOnUse">
<stop stop-color="#00FAFE" stop-opacity="0.37"/>
<stop offset="1" stop-color="#0E1319" stop-opacity="0.19"/>
</linearGradient>
</defs>
</svg>
