<svg width="488" height="151" viewBox="0 0 488 151" fill="none" xmlns="http://www.w3.org/2000/svg">
<path d="M138.5 94.4361L130.101 110.494V120.225H126.734V110.494L118.298 94.4361H122.035L128.399 107.497L134.763 94.4361H138.5ZM150.894 120.558C148.995 120.558 147.268 120.126 145.714 119.263C144.185 118.4 142.976 117.179 142.088 115.6C141.225 113.997 140.793 112.147 140.793 110.05C140.793 107.978 141.237 106.153 142.125 104.574C143.038 102.971 144.271 101.75 145.825 100.911C147.379 100.048 149.118 99.6161 151.042 99.6161C152.966 99.6161 154.705 100.048 156.259 100.911C157.813 101.75 159.034 102.958 159.922 104.537C160.835 106.116 161.291 107.953 161.291 110.05C161.291 112.147 160.822 113.997 159.885 115.6C158.972 117.179 157.727 118.4 156.148 119.263C154.569 120.126 152.818 120.558 150.894 120.558ZM150.894 117.598C152.103 117.598 153.237 117.314 154.298 116.747C155.359 116.18 156.21 115.329 156.851 114.194C157.517 113.059 157.85 111.678 157.85 110.05C157.85 108.422 157.529 107.041 156.888 105.906C156.247 104.771 155.408 103.933 154.372 103.39C153.336 102.823 152.214 102.539 151.005 102.539C149.772 102.539 148.637 102.823 147.601 103.39C146.59 103.933 145.776 104.771 145.159 105.906C144.542 107.041 144.234 108.422 144.234 110.05C144.234 111.703 144.53 113.096 145.122 114.231C145.739 115.366 146.553 116.217 147.564 116.784C148.575 117.327 149.685 117.598 150.894 117.598ZM183.7 99.9491V120.225H180.333V117.228C179.692 118.264 178.791 119.078 177.632 119.67C176.497 120.237 175.239 120.521 173.858 120.521C172.279 120.521 170.861 120.2 169.603 119.559C168.345 118.893 167.346 117.906 166.606 116.599C165.891 115.292 165.533 113.701 165.533 111.826V99.9491H168.863V111.382C168.863 113.38 169.369 114.922 170.38 116.007C171.391 117.068 172.773 117.598 174.524 117.598C176.325 117.598 177.743 117.043 178.779 115.933C179.815 114.823 180.333 113.207 180.333 111.086V99.9491H183.7ZM192.752 103.242C193.344 102.083 194.183 101.182 195.268 100.541C196.378 99.8998 197.722 99.5791 199.301 99.5791V103.057H198.413C194.639 103.057 192.752 105.104 192.752 109.199V120.225H189.385V99.9491H192.752V103.242ZM216.345 94.4361V110.753C216.345 113.047 216.9 114.749 218.01 115.859C219.145 116.969 220.711 117.524 222.709 117.524C224.682 117.524 226.224 116.969 227.334 115.859C228.469 114.749 229.036 113.047 229.036 110.753V94.4361H232.403V110.716C232.403 112.862 231.971 114.675 231.108 116.155C230.245 117.61 229.073 118.696 227.593 119.411C226.138 120.126 224.497 120.484 222.672 120.484C220.847 120.484 219.194 120.126 217.714 119.411C216.259 118.696 215.099 117.61 214.236 116.155C213.397 114.675 212.978 112.862 212.978 110.716V94.4361H216.345ZM241.387 92.8451V120.225H238.02V92.8451H241.387ZM251.232 102.724V114.675C251.232 115.662 251.442 116.365 251.861 116.784C252.281 117.179 253.008 117.376 254.044 117.376H256.523V120.225H253.489C251.615 120.225 250.209 119.793 249.271 118.93C248.334 118.067 247.865 116.648 247.865 114.675V102.724H245.238V99.9491H247.865V94.8431H251.232V99.9491H256.523V102.724H251.232ZM262.342 96.6561C261.701 96.6561 261.158 96.4341 260.714 95.9901C260.27 95.5461 260.048 95.0034 260.048 94.3621C260.048 93.7208 260.27 93.1781 260.714 92.7341C261.158 92.2901 261.701 92.0681 262.342 92.0681C262.959 92.0681 263.477 92.2901 263.896 92.7341C264.34 93.1781 264.562 93.7208 264.562 94.3621C264.562 95.0034 264.34 95.5461 263.896 95.9901C263.477 96.4341 262.959 96.6561 262.342 96.6561ZM263.97 99.9491V120.225H260.603V99.9491H263.97ZM294.091 99.5791C295.67 99.5791 297.076 99.9121 298.309 100.578C299.543 101.219 300.517 102.194 301.232 103.501C301.948 104.808 302.305 106.399 302.305 108.274V120.225H298.975V108.755C298.975 106.732 298.47 105.191 297.458 104.13C296.472 103.045 295.127 102.502 293.425 102.502C291.674 102.502 290.28 103.069 289.244 104.204C288.208 105.314 287.69 106.93 287.69 109.051V120.225H284.36V108.755C284.36 106.732 283.855 105.191 282.843 104.13C281.857 103.045 280.512 102.502 278.81 102.502C277.059 102.502 275.665 103.069 274.629 104.204C273.593 105.314 273.075 106.93 273.075 109.051V120.225H269.708V99.9491H273.075V102.872C273.741 101.811 274.629 100.997 275.739 100.43C276.874 99.8628 278.12 99.5791 279.476 99.5791C281.178 99.5791 282.683 99.9614 283.99 100.726C285.298 101.491 286.272 102.613 286.913 104.093C287.481 102.662 288.418 101.552 289.725 100.763C291.033 99.9738 292.488 99.5791 294.091 99.5791ZM306.57 110.013C306.57 107.941 306.99 106.128 307.828 104.574C308.667 102.995 309.814 101.774 311.269 100.911C312.749 100.048 314.39 99.6161 316.19 99.6161C317.966 99.6161 319.508 99.9984 320.815 100.763C322.123 101.528 323.097 102.49 323.738 103.649V99.9491H327.142V120.225H323.738V116.451C323.072 117.635 322.073 118.622 320.741 119.411C319.434 120.176 317.905 120.558 316.153 120.558C314.353 120.558 312.725 120.114 311.269 119.226C309.814 118.338 308.667 117.092 307.828 115.489C306.99 113.886 306.57 112.06 306.57 110.013ZM323.738 110.05C323.738 108.521 323.43 107.189 322.813 106.054C322.197 104.919 321.358 104.056 320.297 103.464C319.261 102.847 318.114 102.539 316.856 102.539C315.598 102.539 314.451 102.835 313.415 103.427C312.379 104.019 311.553 104.882 310.936 106.017C310.32 107.152 310.011 108.484 310.011 110.013C310.011 111.567 310.32 112.924 310.936 114.083C311.553 115.218 312.379 116.093 313.415 116.71C314.451 117.302 315.598 117.598 316.856 117.598C318.114 117.598 319.261 117.302 320.297 116.71C321.358 116.093 322.197 115.218 322.813 114.083C323.43 112.924 323.738 111.579 323.738 110.05ZM336.939 102.724V114.675C336.939 115.662 337.149 116.365 337.568 116.784C337.988 117.179 338.715 117.376 339.751 117.376H342.23V120.225H339.196C337.322 120.225 335.916 119.793 334.978 118.93C334.041 118.067 333.572 116.648 333.572 114.675V102.724H330.945V99.9491H333.572V94.8431H336.939V99.9491H342.23V102.724H336.939ZM364.81 109.31C364.81 109.951 364.773 110.63 364.699 111.345H348.493C348.616 113.343 349.295 114.909 350.528 116.044C351.786 117.154 353.303 117.709 355.079 117.709C356.534 117.709 357.743 117.376 358.705 116.71C359.692 116.019 360.382 115.107 360.777 113.972H364.403C363.86 115.921 362.775 117.512 361.147 118.745C359.519 119.954 357.496 120.558 355.079 120.558C353.155 120.558 351.428 120.126 349.899 119.263C348.394 118.4 347.21 117.179 346.347 115.6C345.484 113.997 345.052 112.147 345.052 110.05C345.052 107.953 345.471 106.116 346.31 104.537C347.149 102.958 348.32 101.75 349.825 100.911C351.354 100.048 353.106 99.6161 355.079 99.6161C357.003 99.6161 358.705 100.035 360.185 100.874C361.665 101.713 362.8 102.872 363.589 104.352C364.403 105.807 364.81 107.46 364.81 109.31ZM361.332 108.607C361.332 107.324 361.048 106.227 360.481 105.314C359.914 104.377 359.137 103.674 358.15 103.205C357.188 102.712 356.115 102.465 354.931 102.465C353.229 102.465 351.774 103.008 350.565 104.093C349.381 105.178 348.703 106.683 348.53 108.607H361.332Z" fill="black"/>
<rect x="135.464" y="0.425017" width="107.089" height="41.7562" rx="9.65298" transform="rotate(15 135.464 0.425017)" fill="url(#paint0_linear_0_1)"/>
<rect x="135.464" y="0.425017" width="107.089" height="41.7562" rx="9.65298" transform="rotate(15 135.464 0.425017)" stroke="url(#paint1_linear_0_1)" stroke-width="0.69405"/>
<path d="M162.087 23.8632L160.415 30.1C160.217 30.8415 160.26 31.4514 160.544 31.93C160.837 32.411 161.331 32.7446 162.026 32.9307C162.73 33.1193 163.325 33.0775 163.81 32.8052C164.305 32.5354 164.651 32.0297 164.85 31.2883L166.521 25.0515L168.126 25.4816L166.463 31.6901C166.249 32.4879 165.894 33.1172 165.398 33.5779C164.903 34.0386 164.328 34.327 163.673 34.4433C163.018 34.5596 162.339 34.5234 161.635 34.3348C160.931 34.1462 160.324 33.8378 159.815 33.4097C159.316 32.9841 158.971 32.4492 158.782 31.8049C158.592 31.1606 158.604 30.4396 158.818 29.6418L160.482 23.4332L162.087 23.8632ZM171.821 26.4715L169.199 36.256L167.594 35.826L170.216 26.0415L171.821 26.4715ZM183.733 25.9063L175.683 40.634L174.106 40.2115L182.142 25.48L183.733 25.9063ZM190.065 31.36L188.394 37.5967C188.195 38.3382 188.238 38.9482 188.522 39.4267C188.815 39.9077 189.309 40.2413 190.004 40.4274C190.708 40.616 191.303 40.5742 191.788 40.3019C192.283 40.0321 192.63 39.5264 192.828 38.785L194.499 32.5482L196.104 32.9783L194.441 39.1869C194.227 39.9846 193.872 40.6139 193.377 41.0746C192.881 41.5353 192.306 41.8238 191.651 41.94C190.996 42.0563 190.317 42.0201 189.613 41.8315C188.909 41.6429 188.302 41.3345 187.793 40.9064C187.294 40.4808 186.949 39.9459 186.76 39.3016C186.57 38.6573 186.582 37.9363 186.796 37.1385L188.46 30.9299L190.065 31.36ZM201.372 39.6408L203.104 45.3409L201.302 44.858L200.042 40.718L197.022 43.7112L195.234 43.2322L199.584 39.1618L197.842 33.4439L199.644 33.9267L200.91 38.0987L203.952 35.0811L205.74 35.5601L201.372 39.6408Z" fill="#7268FA"/>
<rect x="249.081" y="28.367" width="107.089" height="41.7562" rx="9.65298" transform="rotate(-15 249.081 28.367)" fill="url(#paint2_linear_0_1)"/>
<rect x="249.081" y="28.367" width="107.089" height="41.7562" rx="9.65298" transform="rotate(-15 249.081 28.367)" stroke="url(#paint3_linear_0_1)" stroke-width="0.69405"/>
<path d="M284.499 35.1811C285.541 34.9019 286.506 34.8598 287.393 35.0546C288.287 35.2376 289.046 35.6479 289.669 36.2856C290.3 36.9113 290.748 37.7217 291.015 38.7165C291.281 39.7114 291.297 40.6327 291.061 41.4805C290.835 42.3257 290.38 43.0511 289.698 43.6565C289.022 44.2501 288.163 44.6864 287.121 44.9656L283.925 45.8219L281.304 36.0374L284.499 35.1811ZM286.77 43.6563C287.915 43.3495 288.71 42.8046 289.154 42.0217C289.598 41.2388 289.669 40.2842 289.367 39.1579C289.063 38.0222 288.52 37.217 287.739 36.7423C286.958 36.2675 285.995 36.1836 284.85 36.4904L283.259 36.9166L285.179 44.0826L286.77 43.6563ZM299.926 37.1737C300.004 37.4647 300.056 37.7325 300.081 37.9772L294.154 39.5653C294.367 40.1722 294.73 40.608 295.244 40.8728C295.757 41.1376 296.314 41.1895 296.915 41.0285C297.779 40.7972 298.292 40.2724 298.455 39.4541L300.186 38.9901C300.143 39.7663 299.873 40.4673 299.377 41.0932C298.888 41.7072 298.188 42.1361 297.277 42.3801C296.536 42.5787 295.825 42.593 295.146 42.423C294.474 42.241 293.888 41.895 293.389 41.3848C292.897 40.8628 292.544 40.2029 292.331 39.4051C292.117 38.6073 292.089 37.8653 292.247 37.1792C292.412 36.4811 292.742 35.8898 293.236 35.4054C293.739 34.9185 294.371 34.5731 295.131 34.3694C295.863 34.1733 296.558 34.1581 297.216 34.3238C297.874 34.4895 298.441 34.8205 298.916 35.3169C299.388 35.8039 299.725 36.4229 299.926 37.1737ZM298.115 37.1158C297.947 36.527 297.609 36.1096 297.1 35.8636C296.592 35.6176 296.033 35.5764 295.423 35.7398C294.869 35.8882 294.443 36.1935 294.144 36.6558C293.843 37.1087 293.735 37.6456 293.821 38.2664L298.115 37.1158ZM305.445 40.1914C304.835 40.3549 304.257 40.3941 303.711 40.309C303.172 40.212 302.712 40.0135 302.33 39.7135C301.945 39.4042 301.68 39.0173 301.536 38.5531L303.197 38.108C303.313 38.4289 303.542 38.6643 303.884 38.8141C304.233 38.952 304.623 38.9631 305.055 38.8474C305.506 38.7267 305.83 38.5492 306.029 38.3149C306.235 38.0686 306.301 37.8094 306.228 37.5373C306.15 37.2463 305.951 37.0682 305.632 37.0028C305.322 36.935 304.844 36.897 304.198 36.8891C303.574 36.8854 303.058 36.8576 302.652 36.8055C302.246 36.7534 301.865 36.6089 301.51 36.3721C301.164 36.1328 300.923 35.7598 300.787 35.2529C300.677 34.84 300.698 34.4319 300.852 34.0286C301.003 33.6159 301.277 33.2507 301.675 32.9329C302.082 32.6126 302.581 32.3732 303.172 32.2148C304.054 31.9784 304.823 32.0137 305.479 32.3209C306.142 32.6162 306.595 33.1436 306.839 33.9031L305.234 34.3332C305.112 33.9935 304.897 33.7543 304.589 33.6157C304.28 33.4771 303.91 33.4657 303.478 33.5814C303.056 33.6945 302.753 33.8611 302.571 34.081C302.388 34.3009 302.332 34.5423 302.403 34.8051C302.458 35.0115 302.58 35.1651 302.767 35.2656C302.955 35.3661 303.169 35.4297 303.407 35.4564C303.643 35.4736 303.989 35.4866 304.444 35.4955C305.047 35.4948 305.548 35.5264 305.948 35.5904C306.354 35.6425 306.729 35.7835 307.072 36.0134C307.415 36.2433 307.658 36.6058 307.801 37.1007C307.919 37.5418 307.903 37.9687 307.752 38.3814C307.601 38.794 307.327 39.1592 306.929 39.477C306.541 39.7923 306.046 40.0305 305.445 40.1914ZM308.579 29.8004C308.288 29.8783 308.017 29.8452 307.767 29.7009C307.518 29.5566 307.354 29.339 307.276 29.048C307.198 28.7571 307.231 28.4866 307.375 28.2367C307.519 27.9868 307.737 27.8229 308.028 27.7449C308.31 27.6695 308.575 27.7039 308.825 27.8482C309.075 27.9925 309.239 28.2101 309.317 28.501C309.395 28.792 309.362 29.0624 309.218 29.3123C309.073 29.5622 308.86 29.7249 308.579 29.8004ZM309.643 30.6168L311.721 38.374L310.116 38.8041L308.038 31.0469L309.643 30.6168ZM314.841 29.0881C315.442 28.9271 316.005 28.907 316.53 29.0278C317.062 29.1367 317.507 29.3343 317.866 29.6205L317.564 28.4943L319.183 28.0605L321.296 35.9444C321.487 36.6577 321.506 37.3314 321.354 37.9657C321.205 38.6093 320.887 39.1673 320.4 39.6399C319.922 40.1099 319.289 40.4505 318.501 40.6617C317.449 40.9434 316.51 40.9286 315.682 40.6172C314.857 40.3153 314.284 39.7545 313.964 38.935L315.555 38.5087C315.785 38.8796 316.13 39.1342 316.589 39.2726C317.061 39.4179 317.573 39.4164 318.127 39.268C318.775 39.0945 319.243 38.7578 319.531 38.258C319.829 37.7556 319.878 37.129 319.677 36.3782L319.329 35.083C319.155 35.5219 318.868 35.931 318.466 36.3102C318.072 36.6774 317.579 36.9403 316.988 37.0987C316.312 37.2798 315.647 37.2768 314.993 37.0898C314.347 36.8909 313.777 36.5305 313.285 36.0084C312.8 35.4745 312.453 34.818 312.245 34.039C312.036 33.26 312.011 32.5274 312.169 31.8412C312.336 31.1525 312.653 30.5697 313.119 30.0928C313.591 29.6041 314.165 29.2691 314.841 29.0881ZM318.601 32.3658C318.458 31.8309 318.221 31.3964 317.89 31.0626C317.569 30.7263 317.202 30.5026 316.79 30.3917C316.378 30.2808 315.965 30.2807 315.552 30.3913C315.139 30.502 314.782 30.7083 314.481 31.0104C314.177 31.303 313.965 31.6766 313.846 32.1312C313.733 32.5738 313.748 33.0626 313.892 33.5976C314.035 34.1326 314.269 34.573 314.593 34.9187C314.926 35.2619 315.3 35.4937 315.715 35.614C316.136 35.7224 316.548 35.7225 316.952 35.6144C317.365 35.5037 317.722 35.2974 318.023 34.9953C318.325 34.6933 318.531 34.3163 318.641 33.8642C318.758 33.4003 318.745 32.9008 318.601 32.3658ZM325.171 26.3202C325.781 26.1567 326.359 26.1376 326.906 26.2627C327.462 26.3854 327.943 26.659 328.348 27.0835C328.753 27.508 329.051 28.0722 329.239 28.7761L330.465 33.3516L328.874 33.7779L327.712 29.4417C327.526 28.7472 327.211 28.2634 326.765 27.9904C326.317 27.708 325.793 27.6473 325.192 27.8083C324.592 27.9692 324.163 28.2852 323.907 28.7562C323.658 29.2153 323.627 29.7921 323.813 30.4866L324.975 34.8228L323.37 35.2528L321.291 27.4956L322.896 27.0656L323.134 27.9525C323.311 27.563 323.578 27.225 323.933 26.9385C324.299 26.6495 324.711 26.4434 325.171 26.3202Z" fill="#7268FA"/>
<rect x="384.12" y="0.425017" width="107.089" height="41.7562" rx="9.65298" transform="rotate(15 384.12 0.425017)" fill="url(#paint4_linear_0_1)"/>
<rect x="384.12" y="0.425017" width="107.089" height="41.7562" rx="9.65298" transform="rotate(15 384.12 0.425017)" stroke="url(#paint5_linear_0_1)" stroke-width="0.69405"/>
<path d="M419.963 26.3333L414.441 35.3407L412.625 34.8541L412.554 26.8981L408.388 33.7186L406.582 33.2499L406.434 22.7082L408.137 23.1646L408.03 31.6762L412.361 24.2963L414.163 24.7791L414.08 33.2523L418.246 25.8731L419.963 26.3333ZM422.047 30.2716C422.387 29.9403 422.779 29.7183 423.221 29.6055C423.676 29.4859 424.171 29.4977 424.706 29.6411L424.26 31.3023L423.852 31.1929C423.223 31.0244 422.702 31.0557 422.288 31.2868C421.883 31.5204 421.575 32.0314 421.364 32.8198L420.27 36.9026L418.665 36.4725L420.744 28.7153L422.349 29.1454L422.047 30.2716ZM427.239 29.3541C426.948 29.2762 426.73 29.1122 426.586 28.8623C426.442 28.6124 426.408 28.342 426.486 28.051C426.564 27.7601 426.728 27.5425 426.978 27.3982C427.228 27.2539 427.499 27.2207 427.79 27.2987C428.071 27.3741 428.284 27.5368 428.428 27.7867C428.573 28.0366 428.606 28.3071 428.528 28.598C428.45 28.889 428.286 29.1066 428.036 29.2509C427.786 29.3952 427.52 29.4296 427.239 29.3541ZM427.752 30.5931L425.673 38.3503L424.068 37.9203L426.147 30.1631L427.752 30.5931ZM431.381 32.9687L430.23 37.2626C430.152 37.5536 430.161 37.7824 430.257 37.949C430.365 38.1087 430.584 38.2326 430.912 38.3206L431.898 38.5847L431.539 39.9221L430.272 39.5826C429.55 39.389 429.041 39.0717 428.747 38.6307C428.453 38.1897 428.407 37.5891 428.611 36.8288L429.762 32.5349L428.846 32.2897L429.197 30.9804L430.112 31.2256L430.629 29.2969L432.248 29.7307L431.731 31.6594L433.618 32.1649L433.267 33.4742L431.381 32.9687ZM436.189 31.7524C435.898 31.6744 435.68 31.5105 435.536 31.2605C435.392 31.0106 435.359 30.7402 435.437 30.4493C435.515 30.1583 435.679 29.9407 435.928 29.7964C436.178 29.6521 436.449 29.6189 436.74 29.6969C437.021 29.7724 437.234 29.935 437.379 30.1849C437.523 30.4349 437.556 30.7053 437.478 30.9962C437.4 31.2872 437.236 31.5048 436.986 31.6491C436.736 31.7934 436.471 31.8278 436.189 31.7524ZM436.702 32.9913L434.623 40.7485L433.019 40.3185L435.097 32.5613L436.702 32.9913ZM442.757 34.4779C443.367 34.6414 443.877 34.914 444.288 35.2956C444.708 35.6798 444.988 36.1571 445.127 36.7275C445.266 37.2978 445.241 37.935 445.052 38.6389L443.826 43.2144L442.235 42.7881L443.397 38.452C443.583 37.7574 443.552 37.1806 443.303 36.7215C443.056 36.253 442.632 35.9383 442.032 35.7774C441.431 35.6164 440.902 35.6759 440.445 35.9557C439.999 36.2287 439.684 36.7125 439.497 37.407L438.336 41.7432L436.731 41.3131L438.809 33.5559L440.414 33.986L440.176 34.8729C440.525 34.6242 440.925 34.4648 441.376 34.3946C441.837 34.3269 442.297 34.3547 442.757 34.4779ZM451.111 36.7165C451.712 36.8774 452.21 37.1415 452.604 37.5088C453.01 37.8692 453.297 38.2629 453.464 38.69L453.766 37.5637L455.385 37.9975L453.273 45.8814C453.082 46.5947 452.762 47.188 452.313 47.6613C451.862 48.1439 451.307 48.4681 450.649 48.6338C450 48.802 449.282 48.7805 448.494 48.5693C447.442 48.2876 446.636 47.805 446.075 47.1215C445.511 46.4473 445.296 45.6753 445.428 44.8055L447.019 45.2317C447.033 45.668 447.204 46.061 447.533 46.4106C447.869 46.7722 448.313 47.0271 448.867 47.1755C449.515 47.349 450.088 47.2915 450.588 47.0029C451.097 46.7169 451.453 46.1984 451.654 45.4476L452.001 44.1524C451.631 44.4455 451.177 44.6559 450.64 44.7835C450.114 44.9043 449.556 44.8855 448.965 44.7271C448.289 44.546 447.715 44.2111 447.242 43.7223C446.782 43.2267 446.469 42.6298 446.304 41.9317C446.151 41.2268 446.178 40.4848 446.387 39.7058C446.596 38.9268 446.94 38.2797 447.42 37.7645C447.91 37.2519 448.475 36.9055 449.117 36.7253C449.771 36.5384 450.435 36.5354 451.111 36.7165ZM452.729 41.4352C452.872 40.9003 452.884 40.4055 452.764 39.9509C452.654 39.4989 452.448 39.1219 452.147 38.8198C451.846 38.5178 451.489 38.3114 451.076 38.2008C450.663 38.0901 450.25 38.0902 449.838 38.2012C449.429 38.3027 449.059 38.5204 448.728 38.8542C448.409 39.1812 448.178 39.6122 448.034 40.1471C447.891 40.6821 447.873 41.1803 447.981 41.6417C448.098 42.1057 448.306 42.4934 448.605 42.8048C448.915 43.1094 449.273 43.3157 449.676 43.4239C450.089 43.5345 450.502 43.5344 450.914 43.4235C451.326 43.3125 451.692 43.0889 452.014 42.7525C452.347 42.4093 452.586 41.9702 452.729 41.4352Z" fill="#7268FA"/>
<path d="M436.201 59.2295C437.42 61.3634 438.031 63.6677 438.526 66.063C439.42 70.3911 440.86 74.6073 441.492 78.9886C442.965 89.2147 441.548 99.2264 431.131 103.677C424.502 106.51 417.207 106.066 413.015 99.4692C411.038 96.3583 408.583 90.0703 413.196 88.1668C421.729 84.645 426.101 97.1857 426.101 103.457C426.101 110.341 425.266 116.679 422.233 122.996C417.703 132.433 410.686 140.237 405.18 149.047" stroke="#4F4F4F" stroke-linecap="round"/>
<path d="M403.737 140.751C403.737 142.053 402.551 149.449 404.78 149.408C409.411 149.324 413.543 146.522 418.166 146.522" stroke="#4F4F4F" stroke-linecap="round"/>
<rect x="0.425017" y="28.1416" width="107.089" height="41.7562" rx="9.65298" transform="rotate(-15 0.425017 28.1416)" fill="url(#paint6_linear_0_1)"/>
<rect x="0.425017" y="28.1416" width="107.089" height="41.7562" rx="9.65298" transform="rotate(-15 0.425017 28.1416)" stroke="url(#paint7_linear_0_1)" stroke-width="0.69405"/>
<path d="M35.3198 43.4404L31.2229 44.5381L31.0547 46.7259L29.3794 47.1748L30.2594 36.4369L32.1177 35.939L38.2488 44.7983L36.5593 45.2509L35.3198 43.4404ZM34.5184 42.2518L31.7091 38.1308L31.3226 43.1081L34.5184 42.2518ZM39.6049 37.3429C39.7815 36.9134 40.0718 36.5137 40.4757 36.1439C40.8796 35.7741 41.3772 35.51 41.9685 35.3516C42.6442 35.1705 43.3043 35.1748 43.9485 35.3643C44.5997 35.5419 45.1653 35.8882 45.6454 36.4034C46.1254 36.9186 46.4698 37.5657 46.6786 38.3447C46.8873 39.1237 46.9151 39.8657 46.762 40.5706C46.6063 41.2662 46.2935 41.8631 45.8234 42.3612C45.3602 42.8475 44.7907 43.1812 44.1149 43.3622C43.5236 43.5207 42.9666 43.5442 42.4438 43.4328C41.9185 43.312 41.4626 43.1122 41.0761 42.8335L42.3662 47.6483L40.7613 48.0784L37.6944 36.6326L39.2994 36.2026L39.6049 37.3429ZM45.0455 38.7823C44.9021 38.2473 44.6663 37.8176 44.3379 37.4931C44.0164 37.1568 43.6462 36.9391 43.2274 36.8401C42.8154 36.7292 42.4029 36.729 41.99 36.8397C41.5864 36.9478 41.2292 37.1542 40.9185 37.4587C40.6172 37.7608 40.4067 38.1391 40.2871 38.5936C40.1769 39.0457 40.1934 39.5392 40.3367 40.0742C40.4801 40.6091 40.7138 41.0495 41.0378 41.3952C41.3687 41.7291 41.7401 41.9515 42.1521 42.0624C42.5734 42.1708 42.9859 42.1709 43.3895 42.0628C43.8025 41.9521 44.1596 41.7458 44.4609 41.4437C44.7691 41.1298 44.9771 40.7421 45.0848 40.2807C45.2019 39.8167 45.1888 39.3173 45.0455 38.7823ZM49.1463 34.7863C49.323 34.3567 49.6132 33.9571 50.0171 33.5873C50.421 33.2175 50.9186 32.9534 51.5099 32.795C52.1857 32.6139 52.8457 32.6181 53.49 32.8076C54.1411 32.9852 54.7067 33.3316 55.1868 33.8468C55.6669 34.362 56.0113 35.0091 56.22 35.7881C56.4287 36.5671 56.4565 37.3091 56.3034 38.014C56.1478 38.7096 55.8349 39.3065 55.3648 39.8046C54.9016 40.2909 54.3321 40.6245 53.6563 40.8056C53.065 40.964 52.508 40.9876 51.9852 40.8761C51.46 40.7553 51.0041 40.5556 50.6175 40.2769L51.9077 45.0917L50.3027 45.5218L47.2359 34.076L48.8408 33.646L49.1463 34.7863ZM54.5869 36.2257C54.4436 35.6907 54.2077 35.261 53.8793 34.9365C53.5578 34.6002 53.1877 34.3825 52.7688 34.2835C52.3568 34.1725 51.9444 34.1724 51.5314 34.2831C51.1278 34.3912 50.7707 34.5975 50.46 34.9021C50.1586 35.2042 49.9481 35.5825 49.8285 36.037C49.7183 36.4891 49.7348 36.9826 49.8782 37.5175C50.0215 38.0525 50.2552 38.4929 50.5792 38.8386C50.9101 39.1725 51.2815 39.3948 51.6935 39.5058C52.1149 39.6142 52.5273 39.6143 52.9309 39.5061C53.3439 39.3955 53.701 39.1891 54.0024 38.8871C54.3106 38.5731 54.5185 38.1855 54.6262 37.724C54.7434 37.2601 54.7302 36.7606 54.5869 36.2257ZM63.087 27.6559C64.1288 27.3767 65.0932 27.3346 65.9804 27.5294C66.8744 27.7124 67.6332 28.1227 68.2567 28.7604C68.8871 29.3861 69.3356 30.1965 69.6022 31.1913C69.8688 32.1862 69.8843 33.1075 69.6487 33.9553C69.4225 34.8005 68.968 35.5259 68.2853 36.1313C67.6094 36.7249 66.7505 37.1612 65.7087 37.4404L62.5129 38.2967L59.8912 28.5122L63.087 27.6559ZM65.3579 36.1311C66.5029 35.8243 67.2975 35.2794 67.7416 34.4965C68.1857 33.7136 68.2568 32.759 67.955 31.6327C67.6507 30.497 67.108 29.6918 66.327 29.2171C65.5459 28.7423 64.5828 28.6584 63.4378 28.9652L61.8469 29.3914L63.767 36.5574L65.3579 36.1311ZM78.5137 29.6485C78.5916 29.9395 78.6433 30.2073 78.6686 30.452L72.7416 32.0401C72.9545 32.647 73.3177 33.0828 73.8313 33.3476C74.3449 33.6124 74.902 33.6643 75.5027 33.5033C76.3661 33.272 76.8794 32.7472 77.0424 31.9289L78.774 31.4649C78.7305 32.2411 78.4607 32.9421 77.9644 33.568C77.4751 34.182 76.7752 34.6109 75.8648 34.8549C75.1233 35.0535 74.413 35.0678 73.7336 34.8978C73.0612 34.7158 72.4756 34.3698 71.9767 33.8596C71.4848 33.3376 71.1319 32.6777 70.9181 31.8799C70.7044 31.0821 70.6766 30.3401 70.8347 29.654C70.9998 28.9559 71.3292 28.3646 71.8231 27.8802C72.3264 27.3933 72.9581 27.0479 73.7184 26.8442C74.4504 26.6481 75.1455 26.6329 75.8035 26.7986C76.4616 26.9643 77.0281 27.2953 77.5031 27.7917C77.9756 28.2787 78.3125 28.8977 78.5137 29.6485ZM76.7025 29.5906C76.5347 29.0018 76.1965 28.5844 75.688 28.3384C75.1795 28.0924 74.6202 28.0512 74.0101 28.2146C73.4564 28.363 73.0302 28.6683 72.7315 29.1306C72.4304 29.5835 72.3228 30.1204 72.4086 30.7412L76.7025 29.5906ZM83.7972 31.0545L84.2997 24.1448L86.0032 23.6883L85.1253 32.2377L83.2106 32.7508L78.1897 25.782L79.9072 25.3217L83.7972 31.0545Z" fill="#7268FA"/>
<path d="M69.3736 56.4387C66.2763 61.0469 63.3898 65.4348 61.7268 70.7878C59.8224 76.9176 59.6207 83.2108 59.6577 89.5899C59.71 98.6122 58.881 110.825 65.2128 118.131C66.7263 119.877 68.1601 121.437 70.5881 121.167C79.1969 120.21 73.723 108.432 70.7006 104.546C67.8013 100.819 61.3847 100.071 57.0937 100.161C54.1757 100.221 50.6575 102.128 48.9071 104.524C46.6822 107.568 47.6854 113.615 49.2895 116.781C54.2614 126.594 63.7473 135.371 74.2766 139.002C77.6047 140.15 80.9637 140.644 84.1725 142.173C86.799 143.425 89.5642 145.021 92.449 145.502" stroke="#4F4F4F" stroke-linecap="round"/>
<path d="M90.8324 141.049C91.0122 141.543 95.137 145.468 94.8807 145.502C92.3958 145.833 89.1594 148.481 87.5938 150.36" stroke="#4F4F4F" stroke-linecap="round"/>
<defs>
<linearGradient id="paint0_linear_0_1" x1="189.11" y1="0" x2="189.11" y2="42.4503" gradientUnits="userSpaceOnUse">
<stop stop-color="white"/>
<stop offset="1" stop-color="white"/>
</linearGradient>
<linearGradient id="paint1_linear_0_1" x1="135.219" y1="0" x2="241.143" y2="42.5789" gradientUnits="userSpaceOnUse">
<stop stop-color="#00FAFE" stop-opacity="0.37"/>
<stop offset="1" stop-color="#0E1319" stop-opacity="0.19"/>
</linearGradient>
<linearGradient id="paint2_linear_0_1" x1="302.548" y1="28.1216" x2="302.548" y2="70.5719" gradientUnits="userSpaceOnUse">
<stop stop-color="white"/>
<stop offset="1" stop-color="white"/>
</linearGradient>
<linearGradient id="paint3_linear_0_1" x1="248.656" y1="28.1216" x2="354.581" y2="70.7005" gradientUnits="userSpaceOnUse">
<stop stop-color="#00FAFE" stop-opacity="0.37"/>
<stop offset="1" stop-color="#0E1319" stop-opacity="0.19"/>
</linearGradient>
<linearGradient id="paint4_linear_0_1" x1="437.766" y1="0" x2="437.766" y2="42.4503" gradientUnits="userSpaceOnUse">
<stop stop-color="white"/>
<stop offset="1" stop-color="white"/>
</linearGradient>
<linearGradient id="paint5_linear_0_1" x1="425.256" y1="-2.19318" x2="443.29" y2="37.5699" gradientUnits="userSpaceOnUse">
<stop stop-color="#00FAFE" stop-opacity="0.37"/>
<stop offset="1" stop-color="#0E1319" stop-opacity="0.19"/>
</linearGradient>
<linearGradient id="paint6_linear_0_1" x1="53.8914" y1="27.8962" x2="53.8914" y2="70.3465" gradientUnits="userSpaceOnUse">
<stop stop-color="white"/>
<stop offset="1" stop-color="white"/>
</linearGradient>
<linearGradient id="paint7_linear_0_1" x1="0" y1="27.8962" x2="105.924" y2="70.4752" gradientUnits="userSpaceOnUse">
<stop stop-color="#00FAFE" stop-opacity="0.37"/>
<stop offset="1" stop-color="#0E1319" stop-opacity="0.19"/>
</linearGradient>
</defs>
</svg>
