<svg width="41" height="92" viewBox="0 0 41 92" fill="none" xmlns="http://www.w3.org/2000/svg">
<path d="M34.2011 1.22949C35.4205 3.36337 36.031 5.66773 36.5257 8.06302C37.4196 12.3911 38.8604 16.6073 39.4916 20.9886C40.9648 31.2147 39.5484 41.2264 29.1311 45.6775C22.5025 48.5097 15.2072 48.0664 11.0152 41.4692C9.03849 38.3583 6.58328 32.0703 11.1956 30.1668C19.7291 26.645 24.1011 39.1857 24.1011 45.4571C24.1011 52.3414 23.2656 58.6787 20.2335 64.9958C15.7034 74.4333 8.68599 82.2373 3.17969 91.0473" stroke="#4F4F4F" stroke-linecap="round"/>
<path d="M1.73746 82.751C1.73746 84.0525 0.550841 91.4486 2.77952 91.4081C7.41059 91.3239 11.5433 88.5224 16.166 88.5224" stroke="#4F4F4F" stroke-linecap="round"/>
</svg>
