<svg width="49" height="96" viewBox="0 0 49 96" fill="none" xmlns="http://www.w3.org/2000/svg">
<path d="M22.3736 1.43872C19.2763 6.04694 16.3898 10.4348 14.7268 15.7878C12.8224 21.9176 12.6207 28.2108 12.6577 34.5899C12.71 43.6122 11.881 55.8246 18.2128 63.1306C19.7263 64.8768 21.1601 66.4366 23.5881 66.1668C32.1969 65.2103 26.723 53.4321 23.7006 49.5462C20.8013 45.8185 14.3847 45.0711 10.0937 45.1605C7.1757 45.2213 3.65755 47.1284 1.90712 49.5237C-0.317837 52.5684 0.685397 58.6152 2.28947 61.7811C7.26136 71.5941 16.7473 80.3711 27.2766 84.0019C30.6047 85.1495 33.9637 85.6439 37.1725 87.173C39.799 88.4248 42.5642 90.0209 45.449 90.5017" stroke="#4F4F4F" stroke-linecap="round"/>
<path d="M43.8324 86.0486C44.0122 86.5431 48.137 90.4676 47.8807 90.5017C45.3958 90.8331 42.1594 93.481 40.5938 95.3597" stroke="#4F4F4F" stroke-linecap="round"/>
</svg>
