<svg width="478" height="88" viewBox="0 0 478 88" fill="none" xmlns="http://www.w3.org/2000/svg">
<path d="M476.601 1.96552C470.988 1.96552 467.402 2.62858 462.324 5.44984C450.75 11.8799 440.27 19.9825 428.585 26.3558C417.56 32.3695 406.05 37.3472 395.017 43.2675C364.457 59.6655 330.649 64.2126 295.756 63.0686C273.044 62.3239 265.394 45.5005 267.117 24.8261C268.298 10.6549 289.291 -4.27876 302.895 3.49522C311.071 8.16702 318.934 22.4037 320.657 31.8797C322.687 43.0454 326.677 55.2594 320.911 66.213C318.308 71.16 307.507 75.9648 302.555 78.1106C282.928 86.6158 259.709 89.1675 238.818 84.2294C220.252 79.8413 203.63 70.6522 186.978 61.6239C166.598 50.5749 146.647 42.9114 124.77 35.6189C109.108 30.3984 93.6082 27.9704 77.0091 27.9704C64.0821 27.9704 48.322 25.8201 36.2171 31.0298C29.2362 34.0343 21.6297 39.4919 15.4812 43.9473C12.8012 45.8893 6.78527 48.2517 5.45312 50.916" stroke="black" stroke-linecap="round"/>
<path d="M8.15825 33.8311C8.15825 36.904 6.84138 39.793 5.70188 42.6038C4.91622 44.5418 4.03658 46.4241 3.01911 48.2524C2.44076 49.2916 1.72265 50.1625 1.2306 51.2521C0.992905 51.7784 0.561264 52.6462 0.653292 53.2443C0.709757 53.6114 4.47876 53.4153 4.87554 53.4368C13.8108 53.9198 22.3206 55.9718 30.9788 58.0779" stroke="black" stroke-linecap="round"/>
</svg>
