<svg width="42" height="64" viewBox="0 0 42 64" fill="none" xmlns="http://www.w3.org/2000/svg">
<path d="M25.5061 42.0332C24.0061 37.0332 24.1061 25.8332 36.5061 21.0332C38.0061 26.6999 37.9061 38.8332 25.5061 42.0332Z" fill="white"/>
<circle cx="4" cy="4" r="4" transform="matrix(-1 0 0 1 38.5078 43.0332)" fill="white"/>
<circle cx="4" cy="4" r="4" transform="matrix(-1 0 0 1 14.5078 27.0332)" fill="white"/>
<path fill-rule="evenodd" clip-rule="evenodd" d="M18.9739 29.4895C14.7821 23.25 11.3416 11.6408 21.7425 0.339844C26.7387 6.07923 33.5271 20.0265 22.0118 31.045C22.7679 46.3751 34.7837 55.4487 41.0983 58.155C41.8598 58.4813 42.2125 59.3631 41.8861 60.1246C41.5598 60.886 40.678 61.2388 39.9165 60.9124C32.8237 57.8726 18.9503 47.4391 18.9739 29.4895Z" fill="white"/>
<path d="M21.5078 48.6912C16.5078 50.1912 5.30781 50.0912 0.507813 37.6912C6.17448 36.1912 18.3078 36.2912 21.5078 48.6912Z" fill="white"/>
<path d="M29.335 57.7037C26.0084 60.1254 17.6528 62.9769 10.8438 55.0089C14.6662 52.413 23.7159 49.3178 29.335 57.7037Z" fill="white"/>
</svg>
