<svg width="42" height="64" viewBox="0 0 42 64" fill="none" xmlns="http://www.w3.org/2000/svg">
<path d="M24.9983 42.0332C23.4983 37.0332 23.5983 25.8332 35.9983 21.0332C37.4983 26.6999 37.3983 38.8332 24.9983 42.0332Z" fill="black"/>
<circle cx="4" cy="4" r="4" transform="matrix(-1 0 0 1 38 43.0332)" fill="black"/>
<circle cx="4" cy="4" r="4" transform="matrix(-1 0 0 1 14 27.0332)" fill="black"/>
<path fill-rule="evenodd" clip-rule="evenodd" d="M18.4661 29.4895C14.2743 23.25 10.8338 11.6408 21.2347 0.339844C26.2309 6.07923 33.0192 20.0265 21.504 31.045C22.2601 46.3751 34.2759 55.4487 40.5905 58.155C41.3519 58.4813 41.7047 59.3631 41.3783 60.1246C41.052 60.886 40.1702 61.2388 39.4087 60.9124C32.3158 57.8726 18.4425 47.4391 18.4661 29.4895Z" fill="black"/>
<path d="M21 48.6912C16 50.1912 4.8 50.0912 2.87614e-08 37.6912C5.66667 36.1912 17.8 36.2912 21 48.6912Z" fill="black"/>
<path d="M28.8272 57.7037C25.5006 60.1254 17.145 62.9769 10.3359 55.0089C14.1584 52.413 23.2081 49.3178 28.8272 57.7037Z" fill="black"/>
</svg>
