<svg width="199" height="18" viewBox="0 0 199 18" fill="none" xmlns="http://www.w3.org/2000/svg">
<path d="M1.39844 15.9535C8.42401 12.1705 17.475 10.0222 25.4767 10.0222C31.2055 10.0222 35.3084 11.9653 40.2814 14.6826C45.8346 17.7168 52.2288 16.9505 57.9576 14.659C62.4496 12.8622 66.6055 10.511 70.9735 8.46881C74.4049 6.86451 78.5845 6.29476 82.3183 5.78561C85.865 5.30196 89.7666 5.03646 93.3335 5.45609C99.0975 6.1342 103.833 10.942 109.48 12.423C115.836 14.0901 121.085 12.8441 127.038 10.4694C135.572 7.06587 144.583 2.89273 153.776 1.64312C163.665 0.298961 171.937 5.83186 181.526 6.6094C186.843 7.04048 192.298 6.60413 197.555 7.48026" stroke="black" stroke-linecap="round"/>
</svg>
