<svg width="42" height="64" viewBox="0 0 42 64" fill="none" xmlns="http://www.w3.org/2000/svg">
<path d="M16.5017 41.6934C18.0017 36.6934 17.9017 25.4934 5.50173 20.6934C4.00173 26.36 4.10173 38.4934 16.5017 41.6934Z" fill="black"/>
<circle cx="7.5" cy="46.6934" r="4" fill="black"/>
<circle cx="31.5" cy="30.6934" r="4" fill="black"/>
<path fill-rule="evenodd" clip-rule="evenodd" d="M23.0339 29.1497C27.2257 22.9101 30.6662 11.301 20.2653 0C15.2691 5.73939 8.48075 19.6867 19.996 30.7051C19.2399 46.0353 7.22413 55.1089 0.909506 57.8151C0.148061 58.1415 -0.204666 59.0233 0.121667 59.7847C0.448 60.5462 1.32982 60.8989 2.09126 60.5726C9.18416 57.5328 23.0575 47.0993 23.0339 29.1497Z" fill="black"/>
<path d="M20.5 48.3513C25.5 49.8513 36.7 49.7513 41.5 37.3513C35.8333 35.8513 23.7 35.9513 20.5 48.3513Z" fill="black"/>
<path d="M12.6728 57.3639C15.9994 59.7856 24.355 62.637 31.1641 54.669C27.3416 52.0732 18.2919 48.9779 12.6728 57.3639Z" fill="black"/>
</svg>
