<svg width="42" height="64" viewBox="0 0 42 64" fill="none" xmlns="http://www.w3.org/2000/svg">
<path d="M17.0017 41.6934C18.5017 36.6934 18.4017 25.4934 6.00173 20.6934C4.50173 26.36 4.60173 38.4934 17.0017 41.6934Z" fill="white"/>
<circle cx="8" cy="46.6934" r="4" fill="white"/>
<circle cx="32" cy="30.6934" r="4" fill="white"/>
<path fill-rule="evenodd" clip-rule="evenodd" d="M23.5339 29.1497C27.7257 22.9101 31.1662 11.301 20.7653 0C15.7691 5.73939 8.98075 19.6867 20.496 30.7051C19.7399 46.0353 7.72413 55.1089 1.40951 57.8151C0.648061 58.1415 0.295334 59.0233 0.621667 59.7847C0.948 60.5462 1.82982 60.8989 2.59126 60.5726C9.68416 57.5328 23.5575 47.0993 23.5339 29.1497Z" fill="white"/>
<path d="M21 48.3513C26 49.8513 37.2 49.7513 42 37.3513C36.3333 35.8513 24.2 35.9513 21 48.3513Z" fill="white"/>
<path d="M13.1728 57.3639C16.4994 59.7856 24.855 62.637 31.6641 54.669C27.8416 52.0732 18.7919 48.9779 13.1728 57.3639Z" fill="white"/>
</svg>
