<svg width="467" height="110" viewBox="0 0 467 110" fill="none" xmlns="http://www.w3.org/2000/svg">
<path d="M1.46094 102.106C2.81937 103.804 41.0938 75.5563 44.52 72.726C70.1789 51.5295 96.42 39.6212 128.808 31.8825C155.098 25.6007 183.63 15.7199 210.88 15.4102C224.574 15.2546 240.015 14.0116 253.265 17.9148C265.71 21.5806 273.662 36.255 278.888 47.0061C283.944 57.4059 285.824 65.1665 285.824 76.1938C285.824 91.2895 266.044 100.686 253.554 104.611C242.838 107.979 231.058 107.635 219.935 107.308C206.469 106.912 196.639 81.4367 194.697 70.7031C187.455 30.6829 223.623 15.885 255.481 5.0067C271.449 -0.44607 289.199 1.53885 305.861 1.53885C323.072 1.53885 337.522 5.30109 351.713 15.4102C364.054 24.2011 377.764 30.5583 389.185 40.7448C399.215 49.6902 408.868 58.6936 418.373 68.1985C430.219 80.0447 442.912 93.98 459.216 98.6385" stroke="black" stroke-linecap="round"/>
<path d="M457.174 82.9995C460.464 88.6935 462.655 94.6895 465.201 100.629C465.633 101.638 467.221 103.362 466.052 103.823C461.28 105.703 456.045 106.169 451.255 108.039C450.386 108.377 449.641 108.836 448.742 109.061" stroke="black" stroke-linecap="round"/>
</svg>
