<svg width="20" height="20" viewBox="0 0 20 20" fill="none" xmlns="http://www.w3.org/2000/svg">
<path d="M10.2269 9.28252C10.1469 9.27452 10.0509 9.27452 9.96288 9.28252C8.05887 9.21852 6.54688 7.65852 6.54688 5.73852C6.54687 3.77852 8.13088 2.18652 10.0989 2.18652C12.0589 2.18652 13.6509 3.77852 13.6509 5.73852C13.6429 7.65852 12.1309 9.21852 10.2269 9.28252Z" stroke="#FFFFFF" stroke-width="1.2" stroke-linecap="round" stroke-linejoin="round"/>
<path d="M6.22544 12.2342C4.28944 13.5302 4.28944 15.6422 6.22544 16.9302C8.42544 18.4022 12.0334 18.4022 14.2334 16.9302C16.1694 15.6342 16.1694 13.5222 14.2334 12.2342C12.0414 10.7702 8.43344 10.7702 6.22544 12.2342Z" stroke="#FFFFFF" stroke-width="1.2" stroke-linecap="round" stroke-linejoin="round"/>
</svg>
