<svg width="19" height="19" viewBox="0 0 19 19" fill="none" xmlns="http://www.w3.org/2000/svg">
<path d="M8.95312 1.68652H7.45312C3.70312 1.68652 2.20312 3.18652 2.20312 6.93652V11.4365C2.20312 15.1865 3.70312 16.6865 7.45312 16.6865H11.9531C15.7031 16.6865 17.2031 15.1865 17.2031 11.4365V9.93652" stroke="#FFFFFF" stroke-width="1.2" stroke-linecap="round" stroke-linejoin="round"/>
<path d="M12.7355 2.45147L6.82548 8.36147C6.60048 8.58647 6.37548 9.02897 6.33048 9.35147L6.00798 11.609C5.88798 12.4265 6.46548 12.9965 7.28298 12.884L9.54048 12.5615C9.85548 12.5165 10.298 12.2915 10.5305 12.0665L16.4405 6.15647C17.4605 5.13647 17.9405 3.95147 16.4405 2.45147C14.9405 0.951469 13.7555 1.43147 12.7355 2.45147Z" stroke="#FFFFFF" stroke-width="1.2" stroke-miterlimit="10" stroke-linecap="round" stroke-linejoin="round"/>
<path d="M11.8828 3.29883C12.3853 5.09133 13.7878 6.49383 15.5878 7.00383" stroke="#FFFFFF" stroke-width="1.2" stroke-miterlimit="10" stroke-linecap="round" stroke-linejoin="round"/>
</svg>
