<svg width="20" height="20" viewBox="0 0 20 20" fill="none" xmlns="http://www.w3.org/2000/svg">
<path d="M4.87812 7.78652C6.42452 7.78652 7.67812 6.53292 7.67812 4.98652C7.67812 3.44013 6.42452 2.18652 4.87812 2.18652C3.33173 2.18652 2.07812 3.44013 2.07812 4.98652C2.07812 6.53292 3.33173 7.78652 4.87812 7.78652Z" stroke="#292D32" stroke-width="1.2"/>
<path d="M14.0766 12.5864H16.4766C17.3566 12.5864 18.0766 13.3064 18.0766 14.1864V16.5864C18.0766 17.4664 17.3566 18.1864 16.4766 18.1864H14.0766C13.1966 18.1864 12.4766 17.4664 12.4766 16.5864V14.1864C12.4766 13.3064 13.1966 12.5864 14.0766 12.5864Z" stroke="#292D32" stroke-width="1.2"/>
<path d="M10.1013 4.58643H12.2453C13.7253 4.58643 14.4133 6.41843 13.3013 7.39443L6.90932 12.9864C5.79732 13.9544 6.48532 15.7864 7.95732 15.7864H10.1013" stroke="#292D32" stroke-width="1.2" stroke-linecap="round" stroke-linejoin="round"/>
<path d="M4.89171 4.98643H4.90095" stroke="#292D32" stroke-width="1.6" stroke-linecap="round" stroke-linejoin="round"/>
<path d="M15.2901 15.3863H15.2994" stroke="#292D32" stroke-width="1.6" stroke-linecap="round" stroke-linejoin="round"/>
</svg>
