<svg width="20" height="20" viewBox="0 0 20 20" fill="none" xmlns="http://www.w3.org/2000/svg">
<path d="M16.5031 6.78643V14.5864C16.5031 16.9864 15.0711 17.7864 13.3031 17.7864H6.90313C5.13512 17.7864 3.70312 16.9864 3.70312 14.5864V6.78643C3.70312 4.18643 5.13512 3.58643 6.90313 3.58643C6.90313 4.08243 7.1031 4.53042 7.4311 4.85842C7.7591 5.18642 8.20713 5.38643 8.70313 5.38643H11.5031C12.4951 5.38643 13.3031 4.57843 13.3031 3.58643C15.0711 3.58643 16.5031 4.18643 16.5031 6.78643Z" stroke="#7165FF" stroke-width="1.2" stroke-linecap="round" stroke-linejoin="round"/>
<path d="M13.2984 3.58662C13.2984 4.57862 12.4904 5.38662 11.4984 5.38662H8.69844C8.20244 5.38662 7.75442 5.18662 7.42642 4.85862C7.09842 4.53062 6.89844 4.08262 6.89844 3.58662C6.89844 2.59462 7.70644 1.78662 8.69844 1.78662H11.4984C11.9944 1.78662 12.4425 1.98662 12.7705 2.31462C13.0985 2.64262 13.2984 3.09062 13.2984 3.58662Z" stroke="#7165FF" stroke-width="1.2" stroke-linecap="round" stroke-linejoin="round"/>
<path d="M6.89844 10.5864H10.0984" stroke="#7165FF" stroke-width="1.2" stroke-linecap="round" stroke-linejoin="round"/>
<path d="M6.89844 13.7866H13.2984" stroke="#7165FF" stroke-width="1.2" stroke-linecap="round" stroke-linejoin="round"/>
</svg>
